<?xml version="1.0" standalone="no"?>
<!DOCTYPE svg PUBLIC "-//W3C//DTD SVG 1.1//EN" "http://www.w3.org/Graphics/SVG/1.1/DTD/svg11.dtd" >
<!--
2013-9-30: Created.
-->
<svg>
<metadata>
Created by iconfont
</metadata>
<defs>

<font id="iconfont" horiz-adv-x="1024" >
  <font-face
    font-family="iconfont"
    font-weight="500"
    font-stretch="normal"
    units-per-em="1024"
    ascent="896"
    descent="-128"
  />
    <missing-glyph />
    
    <glyph glyph-name="x" unicode="x" horiz-adv-x="1001"
d="M281 543q-27 -1 -53 -1h-83q-18 0 -36.5 -6t-32.5 -18.5t-23 -32t-9 -45.5v-76h912v41q0 16 -0.5 30t-0.5 18q0 13 -5 29t-17 29.5t-31.5 22.5t-49.5 9h-133v-97h-438v97zM955 310v-52q0 -23 0.5 -52t0.5 -58t-10.5 -47.5t-26 -30t-33 -16t-31.5 -4.5q-14 -1 -29.5 -0.5
t-29.5 0.5h-32l-45 128h-439l-44 -128h-29h-34q-20 0 -45 1q-25 0 -41 9.5t-25.5 23t-13.5 29.5t-4 30v167h911zM163 247q-12 0 -21 -8.5t-9 -21.5t9 -21.5t21 -8.5q13 0 22 8.5t9 21.5t-9 21.5t-22 8.5zM316 123q-8 -26 -14 -48q-5 -19 -10.5 -37t-7.5 -25t-3 -15t1 -14.5
t9.5 -10.5t21.5 -4h37h67h81h80h64h36q23 0 34 12t2 38q-5 13 -9.5 30.5t-9.5 34.5q-5 19 -11 39h-368zM336 498v228q0 11 2.5 23t10 21.5t20.5 15.5t34 6h188q31 0 51.5 -14.5t20.5 -52.5v-227h-327z" />
    

    
    <glyph glyph-name="people" unicode="&#59190;" d="M800 512c0 160-128 288-288 288s-288-128-288-288c0-108.8 57.6-201.6 147.2-249.6-121.6-48-214.4-153.6-240-288-3.2-16 6.4-35.2 25.6-38.4h6.4c16 0 28.8 9.6 32 25.6 28.8 150.4 160 259.2 313.6 262.4h6.4c156.8 0 284.8 128 284.8 288zM288 512c0 124.8 99.2 224 224 224s224-99.2 224-224c0-121.6-99.2-220.8-220.8-224h-9.6c-121.6 3.2-217.6 102.4-217.6 224zM723.2 220.8c-16 9.6-35.2 6.4-44.8-9.6-9.6-16-6.4-35.2 9.6-44.8 73.6-51.2 124.8-121.6 140.8-204.8 3.2-16 16-25.6 32-25.6h6.4c16 3.2 28.8 19.2 25.6 38.4-19.2 99.2-80 185.6-169.6 246.4z"  horiz-adv-x="1024" />

    
    <glyph glyph-name="xiaoxi" unicode="&#58978;" d="M818.152748 215.217922 818.152748 466.815147c0 128.523165-96.139617 236.459456-225.520313 266.715551l0 18.145266c0 42.107003-36.169781 76.371388-80.636528 76.371388-44.451398 0-80.621179-34.264385-80.621179-76.371388l0-18.145266c-129.380696-30.256094-225.520313-138.192386-225.520313-266.715551l0-253.581416-29.826306-88.605014 0-5.234211c0-26.420743 22.186302-47.919383 49.466622-47.919383l572.504002 0c27.560706 0 49.982368 21.702278 49.982368 48.388057l0 5.15644L818.152748 215.217922zM495.371274 751.676987c0 5.859451 6.827499 12.374842 16.639982 12.374842 9.79611 0 16.624632-6.515391 16.624632-12.374842l0-9.843182c-3.130294 0.090051-6.188956 0.437975-9.342786 0.437975l-14.576997 0c-3.15383 0-6.212492-0.347924-9.342786-0.437975L495.373321 751.676987zM247.194962 135.47167l22.654976 67.293639L269.849938 466.815147c0 116.603695 105.35449 211.459063 234.864122 211.459063l14.576997 0c129.509632 0 234.864122-94.854345 234.864122-211.459063l0-261.909082 22.968108-69.434395L247.194962 135.47167zM520.963139 3.900076c-30.466895 0-55.262628 15.608489-55.262628 47.607274l-63.996546 0c0-63.996546 53.497425-111.603821 119.260198-111.603821 65.7464 0 119.243825 47.607274 119.243825 111.603821l-63.996546 0C576.210417 19.508565 551.431058 3.900076 520.963139 3.900076z"  horiz-adv-x="1024" />

    
    <glyph glyph-name="guanbi2fill" unicode="&#59172;" d="M512 832c-247.00852 0-448-200.960516-448-448S264.960516-64 512-64c247.00852 0 448 200.960516 448 448S759.039484 832 512 832zM694.752211 246.015966c12.480043-12.54369 12.447359-32.768069-0.063647-45.248112-6.239161-6.208198-14.399785-9.34412-22.591372-9.34412-8.224271 0-16.415858 3.135923-22.65674 9.407768l-137.60043 138.016718-138.047682-136.576912c-6.239161-6.14455-14.368821-9.247789-22.496761-9.247789-8.255235 0-16.479505 3.168606-22.751351 9.504099-12.416396 12.576374-12.320065 32.800753 0.25631 45.248112l137.887703 136.384249-137.376804 137.824056c-12.480043 12.512727-12.447359 32.768069 0.063647 45.248112 12.512727 12.512727 32.735385 12.447359 45.248112-0.063647l137.567746-137.984034 138.047682 136.575192c12.54369 12.447359 32.831716 12.320065 45.248112-0.25631 12.447359-12.576374 12.320065-32.831716-0.25631-45.248112L557.344443 383.872705 694.752211 246.015966z"  horiz-adv-x="1024" />

    
    <glyph glyph-name="guanbi2" unicode="&#59174;" d="M512-64c-247.039484 0-448 200.960516-448 448S264.960516 832 512 832 960 631.039484 960 384 759.039484-64 512-64zM512 767.712727c-211.584464 0-383.712727-172.128262-383.712727-383.712727 0-211.551781 172.128262-383.712727 383.712727-383.712727 211.551781 0 383.712727 172.159226 383.712727 383.712727C895.712727 595.584464 723.551781 767.712727 512 767.712727zM557.05545 382.623841l138.367639 136.864185c12.576374 12.416396 12.672705 32.671738 0.25631 45.248112s-32.704421 12.672705-45.248112 0.25631l-138.560301-137.024163-136.447897 136.864185c-12.512727 12.512727-32.735385 12.576374-45.248112 0.063647-12.512727-12.480043-12.54369-32.735385-0.063647-45.248112l136.255235-136.671523-137.376804-135.904314c-12.576374-12.447359-12.672705-32.671738-0.25631-45.248112 6.271845-6.335493 14.496116-9.504099 22.751351-9.504099 8.12794 0 16.25588 3.103239 22.496761 9.247789l137.567746 136.064292 138.687596-139.136568c6.240882-6.271845 14.432469-9.407768 22.65674-9.407768 8.191587 0 16.352211 3.135923 22.591372 9.34412 12.512727 12.480043 12.54369 32.704421 0.063647 45.248112L557.05545 382.623841z"  horiz-adv-x="1024" />

    
    <glyph glyph-name="chazhao" unicode="&#58906;" d="M948.032-6.784l-206.976 206.976C797.696 267.072 832 353.472 832 448c0 212.064-171.936 384-384 384S64 660.064 64 448s171.936-384 384-384c94.528 0 180.928 34.304 247.808 90.912l206.976-206.976c14.016-14.016 35.488-15.232 48-2.72C963.264-42.272 962.048-20.8 948.032-6.784zM448 128C271.264 128 128 271.264 128 448S271.264 768 448 768s320-143.264 320-320S624.736 128 448 128z"  horiz-adv-x="1024" />

    
    <glyph glyph-name="back" unicode="&#58903;" d="M351.080548 370.615113 743.262807 762.797372C759.532765 779.06733 759.951517 806.501046 743.289109 823.163453 727.114066 839.338496 699.599924 839.814046 682.923028 823.137151L260.597176 400.811299C260.592789 400.806912 260.588409 400.802531 260.584088 400.79809 260.579641 400.793764 260.575261 400.789383 260.57088 400.785003 252.487594 392.701717 248.325109 381.786607 248.264661 370.807434 248.183184 359.788528 252.244232 348.771872 260.57088 340.445224 260.575285 340.440819 260.57969 340.436414 260.584034 340.43207 260.588439 340.427665 260.592844 340.42326 260.597188 340.418916L682.923083-81.906979C699.19304-98.176936 726.626738-98.595598 743.289109-81.933227 759.464177-65.758159 759.939751-38.244089 743.262861-21.5672L351.080548 370.615113Z"  horiz-adv-x="1024" />

    
    <glyph glyph-name="weibiaoti2" unicode="&#58959;" d="M837.889 58.111l651.776 651.776h-1303.553z"  horiz-adv-x="2048" />

    
    <glyph glyph-name="yisheng-" unicode="&#58883;" d="M512.512 478.208c17.408 0 31.232 13.824 31.232 31.232v66.56h67.584c17.408 0 31.232 13.824 31.232 31.232 0 17.408-13.824 31.232-31.232 31.232h-67.584v58.368c0 17.408-13.824 31.232-31.232 31.232s-31.232-13.824-31.232-31.232v-58.368h-67.584c-17.408 0-31.232-13.824-31.232-31.232 0-17.408 13.824-31.232 31.232-31.232H481.28v-66.56c0-17.408 13.824-31.232 31.232-31.232zM224.256 488.96c17.408 0 31.232 13.824 31.232 31.232v103.424c0 67.072 67.072 145.408 256 145.408 124.416 0 257.536-38.4 257.536-145.408v-103.424c0-17.408 13.824-31.232 31.232-31.232s31.232 13.824 31.232 31.232v103.424c0 100.352-83.968 207.872-320 207.872-235.008 0-318.464-112.128-318.464-207.872v-103.424c0-17.408 14.336-31.232 31.232-31.232zM374.784 205.824c-0.512 0-0.512 0.512-1.024 1.024-73.728 58.368-111.104 125.952-111.104 201.728 0 17.408-13.824 31.232-31.232 31.232-17.408 0-31.232-13.824-31.232-31.232 0-85.504 38.4-164.352 110.592-230.4-56.832-55.296-103.936-110.592-141.312-198.656-6.656-15.872 0.512-34.304 16.384-40.96 4.096-1.536 8.192-2.56 12.288-2.56 12.288 0 23.552 7.168 28.672 18.944 38.4 90.112 87.04 140.288 152.064 201.728 12.288 11.776 13.312 31.744 1.024 44.032-1.024 2.56-3.072 4.096-5.12 5.12zM855.04-20.48c-37.376 88.576-84.48 143.36-141.824 199.168 72.192 65.536 110.08 144.384 110.08 229.888 0 17.408-13.824 31.232-31.232 31.232s-31.232-13.824-31.232-31.232c0-96.256-61.952-164.352-114.176-204.288-13.824-10.752-16.384-30.208-5.632-44.032 2.048-2.56 4.608-4.608 7.168-6.656C711.68 93.696 759.296 43.52 797.184-45.056c5.12-11.776 16.384-18.944 28.672-18.944 4.096 0 8.192 1.024 12.288 2.56 16.384 6.656 23.552 25.088 16.896 40.96z"  horiz-adv-x="1024" />

    
    <glyph glyph-name="lajitong" unicode="&#58923;" d="M661.333333 682.666667V725.333333c0 23.466667-19.2 42.666667-42.666666 42.666667H405.333333c-23.466667 0-42.666667-19.2-42.666666-42.666667v-42.666666H170.666667v-42.666667h64v-597.333333c0-23.466667 19.2-42.666667 42.666666-42.666667h469.333334c23.466667 0 42.666667 19.2 42.666666 42.666667V640h64v42.666667h-192zM405.333333 725.333333h213.333334v-42.666666H405.333333V725.333333z m341.333334-682.666666H277.333333V640h469.333334v-597.333333zM618.666667 554.666667h42.666666v-426.666667h-42.666666zM362.666667 554.666667h42.666666v-426.666667h-42.666666zM490.666667 554.666667h42.666666v-426.666667h-42.666666z"  horiz-adv-x="1024" />

    
    <glyph glyph-name="xinfeng" unicode="&#58935;" d="M857.6 832H173.056C76.8 832 0 761.344 0 665.6v-563.2c0-96.256 76.8-166.4 173.056-166.4h678.4c96.256 0 173.056 70.656 173.056 166.4V665.6c-0.512 95.744-77.312 166.4-166.912 166.4z m102.4-729.6c0-57.856-45.056-102.4-102.4-102.4H173.056c-57.856 0-102.4 45.056-102.4 102.4V492.544l332.8-217.6c38.4-25.6 83.456-38.4 121.856-38.4s76.8 12.8 109.056 38.4l326.656 224.256V102.4z m0 486.912L595.456 332.8c-45.056-32.256-115.2-32.256-160.256 0L70.656 576V665.6c0 57.856 45.056 102.4 102.4 102.4h685.056c57.856 0 102.4-45.056 102.4-102.4v-76.288z"  horiz-adv-x="1024" />

    
    <glyph glyph-name="tuodong" unicode="&#58965;" d="M1000.8 588H24c-13.6 0-24 10.4-24 24s10.4 24 24 24h976c13.6 0 24-10.4 24-24 0.8-13.6-10.4-24-23.2-24zM1000 361.6H24c-12.8 0-24 10.4-24 24s10.4 24 24 24h976c12.8 0 24-10.4 24-24s-11.2-24-24-24zM1000 134.4H24c-13.6 0-24 10.4-24 24s10.4 24 24 24h975.2c13.6 0 24-10.4 24-24 0.8-13.6-10.4-24-23.2-24z"  horiz-adv-x="1024" />

    
    <glyph glyph-name="icon-arrow-right" unicode="&#58904;" d="M492.676-8.818l393.020 393.020-393.020 393.020c-12.258 12.258-12.432 32.892 0.187 45.511 12.707 12.707 32.995 12.703 45.512 0.187l411.661-411.661c7.12-7.12 10.163-17.066 8.991-26.624 1.5-9.755-1.51-20.011-8.991-27.491l-411.661-411.66c-12.258-12.258-32.892-12.432-45.512 0.187-12.707 12.707-12.703 32.995-0.187 45.511z"  horiz-adv-x="1024" />

    
    <glyph glyph-name="shezhi" unicode="&#58915;" d="M661.636-21.743h-0.006c-16.273 0.008-32.097 6.733-42.312 18.008-13.921 15.264-58.031 54.955-94.135 54.955-35.857 0-80.65-39.921-93.515-53.902-10.192-11.084-25.904-17.7-42.02-17.7-7.681 0-14.923 1.47-21.54 4.378l-1.16 0.503-109.745 61.374-1.092 0.761c-19.976 13.987-27.58 41.343-17.68 63.634 0.077 0.167 10.123 23.351 10.123 44.49 0 64.146-52.19 116.337-116.335 116.337h-3.89c-0.24-0.009-0.479-0.014-0.704-0.014-18.378 0-33.337 16.323-38.123 41.587-0.379 2.026-9.36 49.938-9.36 87.688 0 37.753 8.978 85.67 9.36 87.695 4.84 25.582 20.125 42.015 38.828 41.575h3.89c64.146 0 116.335 52.19 116.335 116.332 0 21.132-10.041 44.311-10.148 44.544-9.889 22.266-2.235 49.619 17.832 63.56l1.137 0.788 115.82 63.621 1.206 0.512c6.524 2.78 13.665 4.19 21.232 4.19 16.086 0 31.824-6.473 42.114-17.316 13.709-14.35 57.036-51.681 92.108-51.681 34.744 0 77.81 36.59 91.471 50.692 10.233 10.62 25.86 16.983 41.782 16.983 7.72 0 14.996-1.46 21.628-4.34l1.17-0.512 111.866-62.148 1.104-0.774c20.017-13.965 27.639-41.324 17.731-63.625-0.072-0.17-10.124-23.355-10.124-44.493 0-64.143 52.19-116.332 116.334-116.332h3.896c18.673 0.416 33.98-15.99 38.822-41.575 0.38-2.024 9.36-49.936 9.36-87.688 0-37.755-8.98-85.67-9.367-87.694-4.837-25.584-20.144-41.955-38.824-41.573h-3.887c-64.144 0-116.334-52.191-116.334-116.337 0-21.128 10.042-44.304 10.145-44.534 9.882-22.257 2.243-49.614-17.786-63.567l-1.119-0.786L683.967-17l-1.183-0.514c-6.511-2.803-13.621-4.229-21.148-4.229z m-3.455 53.594c0.506-0.332 1.946-0.896 3.455-0.896 0.062 0 0.118 0 0.17 0.004l106.28 58.74c-2.566 5.957-14.295 34.885-14.295 65.05 0 90.232 71.065 164.178 160.167 168.802 1.28 7.082 8.242 46.918 8.242 76.801 0 29.883-6.962 69.7-8.242 76.803-89.1 4.627-160.167 78.573-160.167 168.8 0 30.213 11.765 59.175 14.308 65.09l-104.555 58.089c-0.12 0.005-0.268 0.016-0.439 0.016-1.78 0-3.443-0.65-3.996-1.023-1.758-1.804-16.91-17.173-38.682-32.486-32.226-22.67-62.697-34.167-90.575-34.167-28.142 0-58.86 11.724-91.292 34.84-21.906 15.609-37.132 31.274-38.89 33.111-0.557 0.377-2.245 1.046-4.04 1.046-0.14 0-0.263-0.005-0.372-0.011l-108.299-59.482c2.6-6.033 14.283-34.909 14.283-65.025 0-90.226-71.063-164.172-160.166-168.8-1.28-7.086-8.241-46.916-8.241-76.802 0-29.88 6.96-69.695 8.248-76.795 89.094-4.63 160.16-78.572 160.16-168.801 0-30.278-11.812-59.286-14.328-65.124l102.502-57.316c0.064-0.009 0.143-0.009 0.23-0.009 1.495 0 2.914 0.55 3.423 0.877 1.916 2.055 17.223 18.262 39.277 34.425 32.866 24.09 64.1 36.3 92.836 36.3 29.004 0 60.477-12.443 93.535-36.994 22.18-16.466 37.554-32.973 39.463-35.063zM525.556 246.015c-85.424 0-154.923 69.501-154.923 154.928 0 85.424 69.5 154.924 154.923 154.924 85.428 0 154.932-69.5 154.932-154.924 0-85.427-69.504-154.928-154.932-154.928z m0 257.156c-56.368 0-102.224-45.858-102.224-102.226 0-56.372 45.857-102.231 102.224-102.231 56.373 0 102.238 45.859 102.238 102.23 0 56.369-45.863 102.227-102.238 102.227z"  horiz-adv-x="1024" />

    
    <glyph glyph-name="dakaiiconX" unicode="&#58893;" d="M1024 896v-1024H0z"  horiz-adv-x="1024" />

    
    <glyph glyph-name="xuhao" unicode="&#58931;" d="M512 384m-448 0a448 448 0 1 1 896 0 448 448 0 1 1-896 0ZM593.408 140.288H486.4V511.488l-68.608-37.888-27.648 90.112 120.32 64h82.944v-487.424z"  horiz-adv-x="1024" />

    
    <glyph glyph-name="xuhao1" unicode="&#58932;" d="M512 384m-448 0a448 448 0 1 1 896 0 448 448 0 1 1-896 0ZM620.032 178.176c-32.256-29.696-77.312-45.056-130.56-45.056-54.272 0-98.816 16.896-120.32 31.232l-12.8 8.704 31.232 92.16L409.6 250.88c13.312-8.704 45.056-22.016 77.312-22.016 33.792 0 69.632 16.384 69.632 61.44 0 31.232-21.504 64.512-81.408 64.512H424.96V443.904h49.152c28.672 0 69.12 16.384 69.12 52.736 0 27.648-17.92 43.008-50.176 43.008-25.6 0-52.736-12.288-68.096-23.04L403.456 501.76l-30.72 88.064 11.776 8.704c23.04 16.896 69.12 36.352 124.416 36.352 99.84 0 144.896-64 144.896-127.488 0-41.472-18.944-77.312-52.736-101.888 37.376-20.992 67.072-60.416 67.072-117.248-0.512-43.008-17.408-81.92-48.128-110.08z"  horiz-adv-x="1024" />

    
    <glyph glyph-name="xuhao2" unicode="&#58939;" d="M512 384m-448 0a448 448 0 1 1 896 0 448 448 0 1 1-896 0ZM630.272 350.72V627.712H522.24l-184.32-299.008v-70.144h187.392v-118.272h104.96v118.272H686.08v92.16h-55.808z m-104.96 0H458.24l67.072 107.008v-107.008z"  horiz-adv-x="1024" />

    
    <glyph glyph-name="mima" unicode="&#58881;" d="M500.363636 290.909091l23.272727 0C542.906182 290.909091 558.545455 275.269818 558.545455 256l0-162.909091c0-19.269818-15.639273-34.909091-34.932364-34.909091l-23.272727 0c-19.293091 0-34.909091 15.639273-34.909091 34.909091l0 162.909091C465.454545 275.269818 481.070545 290.909091 500.363636 290.909091zM884.363636 407.272727l0-419.746909C884.363636-37.678544999999986 863.511273-58.18181800000002 837.818182-58.18181800000002L186.181818-58.18181800000002c-25.669818 0-46.545455 20.503273-46.545455 45.707636L139.636364 407.272727 884.363636 407.272727M954.181818 477.090909L69.818182 477.090909l0-489.565091C69.818182-76.28800000000001 121.902545-128 186.181818-128l651.636364 0c64.279273 0 116.363636 51.712 116.363636 115.525818L954.181818 477.090909 954.181818 477.090909zM861.090909 477.090909l-69.818182 0 0 69.818182c0 156.997818-131.095273 279.272727-279.272727 279.272727-151.831273 0-279.272727-127.418182-279.272727-279.272727l0-69.818182L162.909091 477.090909l0 69.818182C162.909091 737.256727 321.652364 896 512 896c187.950545 0 349.090909-152.273455 349.090909-349.090909L861.090909 477.090909z"  horiz-adv-x="1024" />

    
    <glyph glyph-name="gerenxinxi" unicode="&#58979;" d="M872.5 24.5h-721c-47.7 0-86.5 38.8-86.5 86.5V656.9c0 47.7 38.8 86.5 86.5 86.5h721.1c47.7 0 86.5-38.8 86.5-86.5v-545.8c0-47.7-38.8-86.6-86.6-86.6z m-721 666c-18.6 0-33.6-15.1-33.6-33.6v-545.8c0-18.5 15.1-33.6 33.6-33.6h721.1c18.5 0 33.6 15.1 33.6 33.6V656.9c0 18.5-15.1 33.6-33.6 33.6H151.5z m0 0M360.2 343.5c-66.7 0-120.9 54.3-120.9 121s54.3 120.9 120.9 120.9c66.7 0 120.9-54.3 120.9-120.9 0.1-66.8-54.2-121-120.9-121z m0 189c-37.5 0-68-30.5-68-68s30.5-68 68-68 68 30.5 68 68c0.1 37.4-30.4 68-68 68z m0 0M527.7 176c-14.6 0-26.5 11.8-26.5 26.4 0 77.7-63.3 141-141 141s-141-63.3-141-141c0-14.6-11.8-26.4-26.5-26.4-14.6 0-26.5 11.8-26.5 26.4 0 106.9 87 193.9 193.9 193.9S554 309.3 554 202.4c0.1-14.5-11.7-26.4-26.3-26.4z m309.8 334.9H641.3c-14.6 0-26.5 11.8-26.5 26.5 0 14.6 11.8 26.5 26.5 26.5h196.2c14.6 0 26.5-11.8 26.5-26.5 0-14.6-11.9-26.5-26.5-26.5z m0-160.2H641.3c-14.6 0-26.5 11.8-26.5 26.5 0 14.6 11.8 26.5 26.5 26.5h196.2c14.6 0 26.5-11.8 26.5-26.5s-11.9-26.5-26.5-26.5z m0-148.4H641.3c-14.6 0-26.5 11.8-26.5 26.5 0 14.6 11.8 26.5 26.5 26.5h196.2c14.6 0 26.5-11.8 26.5-26.5 0-14.6-11.9-26.5-26.5-26.5z m0 0"  horiz-adv-x="1024" />

    
    <glyph glyph-name="khyiyuan" unicode="&#58882;" d="M125.4 649.2c0 50.4 45.1 91.4 101 91.4h353.9c55.8 0 101-40.9 101-91.4v-636.8H125.4V649.2z m50.5 0v-591.3h454.7V649.2c0 25.4-22.6 45.8-50.4 45.8H226.3c-27.8 0.1-50.4-20.4-50.4-45.8z m0 43.4M631.7 428.2c0 25.4 22.8 46 50.1 46h203c27.7 0 50.1-21 50.1-46v-415.7H631.7V428.2z m49.5-369.5h202.1V428H681.2v-369.3zM302.3 450h202.1c13.9 0 25.3 10.9 25.3 24.3s-11.3 24.3-25.3 24.3H302.3c-13.9 0-25.3-10.8-25.3-24.3s11.3-24.3 25.3-24.3z m0 0M378 571.4V377c0-13.4 11.3-24.3 25.3-24.3 13.9 0 25.3 10.8 25.3 24.3V571.4c0 13.4-11.3 24.3-25.3 24.3-13.9 0-25.3-10.9-25.3-24.3zM277 207c0 26.9 22.4 48.6 50.5 48.6h151.7c27.9 0 50.5-21.5 50.5-48.6v-145.8c0-26.9-22.4-48.6-50.5-48.6H327.5c-27.9 0-50.5 21.5-50.5 48.6V207z m50.5-145.9h151.6V207H327.5v-145.9z m307.2 291.7h202.1v-48.6H634.7v48.6z m0-145.8h202.1v-48.6H634.7V207z m-4 0"  horiz-adv-x="1024" />

    
    <glyph glyph-name="khshoushushisuolve" unicode="&#58886;" d="M961.3 120.8H64.7c-11.5 0-20.9 9.3-20.9 20.9V642.2c0 11.5 9.3 20.9 20.9 20.9h106.1c5.6 0 10.8-2.2 14.7-6.1l42-42c3.9-3.9 9.3-6.1 14.7-6.1h541.4c5.6 0 10.8 2.2 14.7 6.1l42 42c3.9 3.9 9.2 6.1 14.7 6.1h106.1c11.5 0 20.9-9.3 20.9-20.9v-500.6c0.1-11.5-9.2-20.8-20.7-20.8"  horiz-adv-x="1024" />

    
    <glyph glyph-name="shoushu" unicode="&#58887;" d="M512 384m-375 0a375 375 0 1 1 750 0 375 375 0 1 1-750 0ZM330.1 432.8h360.4c15.2-1.2 24-10.5 26.4-28.1-2.4-18.8-11.2-28.1-26.4-28.1H330.1c-14.1 0-21.7 9.4-22.9 28.1 1.2 17.5 8.8 26.9 22.9 28.1zM690.4 373.5H330.1c-19.8 0-25 16.8-25.8 30.9v0.4c0.9 13.2 6 29.3 25.6 30.9H690.8c16.8-1.3 26.5-11.6 29.1-30.7l0.1-0.4v-0.4c-2-13.9-8.5-30.7-29.6-30.7z m-380.2 31.2c1.1-16.9 7.6-25.1 19.8-25.1h360.4c13.5 0 21.1 8.2 23.3 25.1-2.2 15.8-9.9 24-23.5 25.1h-360c-18.3-1.6-19.6-19.1-20-25.1z"  horiz-adv-x="1024" />

    
    <glyph glyph-name="shoushu1" unicode="&#58888;" d="M512 384m-375 0a375 375 0 1 1 750 0 375 375 0 1 1-750 0ZM341.5 281.1h342.7c12.3-1.1 19-10.1 20.2-26.9-1.1-14.5-7.8-22.4-20.2-23.5H341.5c-13.4 1.1-20.7 9-21.8 23.5 1.1 16.8 8.4 25.8 21.8 26.9z m21.8 287.2h302.3c12.3-1.1 19-10.1 20.2-26.9-1.1-16.8-7.8-25.2-20.2-25.2H363.3c-14.6 0-22.4 8.4-23.5 25.2 1.1 16.9 9 25.8 23.5 26.9zM684.3 227.7h-343c-14.9 1.2-23.4 10.3-24.6 26.3v0.4c0.8 12.7 5.8 28.1 24.6 29.7H684.5c13.9-1.3 21.6-11.3 22.9-29.7v-0.4c-1.6-20.1-13.3-25.4-22.9-26.3h-0.2z m-342.7 6H684c10.7 1 16.2 7.6 17.3 20.5-1.6 22.2-13.2 23.5-17.3 23.9H341.6c-11.7-1-17.9-8.8-19-23.9 1.1-12.9 7.2-19.4 19-20.5z m324.1 279.6H363.3c-11.3 0-25 4.9-26.5 28v0.4c0.8 12.7 6.1 28.1 26.3 29.7h302.8c13.9-1.3 21.6-11.3 22.9-29.7v-0.4c-1.5-23.2-13.4-28-23.1-28z m-322.9 28.2c1-15.1 7.6-22.2 20.5-22.2h302.3c13.9 0 16.5 12.6 17.1 22.2-1.6 22.2-13.2 23.5-17.3 23.9H363.5c-12.9-1.1-19.6-8.9-20.7-23.9z"  horiz-adv-x="1024" />

    
    <glyph glyph-name="shoushu2" unicode="&#58889;" d="M512 384m-375 0a375 375 0 1 1 750 0 375 375 0 1 1-750 0ZM337.3 257.2h351.1c14.5-1.1 22.4-9.5 23.5-25.2-1.1-14.5-9-22.4-23.5-23.5H337.3c-15.7 1.1-24.1 9-25.2 23.5 1.1 15.7 9.5 24.1 25.2 25.2z m20.2 302.3h310.7c13.4-1.1 20.7-9.5 21.8-25.2-1.1-16.8-8.4-25.2-21.8-25.2H357.5c-13.4 0-20.7 8.4-21.8 25.2 1 15.7 8.3 24.1 21.8 25.2z m16.8-142.7h282.2c13.4-1.1 21.3-9.5 23.5-25.2-1.1-16.8-8.4-25.2-21.8-25.2H374.3c-15.7 0-24.1 8.4-25.2 25.2 1.1 15.6 9.5 24 25.2 25.2zM688.5 205H337.1c-17.4 1.2-27.2 10.5-28.4 26.7v0.6c1.2 17.4 11.1 27.2 28.4 28.4h351.6c16.2-1.3 25.5-11.1 26.7-28.4v-0.6c-1.3-16.2-10.5-25.5-26.7-26.7h-0.2z m-351.1 7h350.8c12.7 1 19.1 7.4 20.1 20-1.1 13.8-7.5 20.7-20.1 21.7H337.4c-13.8-1-20.8-7.9-21.8-21.7 1.1-12.6 8-19 21.8-20z m320.7 150.9H374.3c-17.5 0-27.5 9.8-28.7 28.5v0.4c1.2 17.4 11.1 27.2 28.4 28.4H656.7c10.4-0.9 23.6-6.5 26.7-28.2l0.1-0.4v-0.4c-1.6-23.4-14.7-28.3-25.4-28.3z m-305.5 28.6c1-14.8 7.9-21.7 21.7-21.7h283.9c7.2 0 16.9 2.2 18.3 21.6-2.1 13.9-8.5 20.8-20.1 21.8h-282c-13.8-1-20.8-7.9-21.8-21.7z m315.6 114.1H357.5c-10.7 0-23.8 4.9-25.3 28.5v0.4c1.5 21.9 14.5 27.5 25 28.4h311.3c10.5-0.9 23.5-6.5 25-28.4v-0.4c-1.5-23.5-14.6-28.5-25.3-28.5z m-329.1 28.7c1.4-19.4 11.1-21.7 18.3-21.7h310.7c7.2 0 16.9 2.3 18.3 21.7-1.1 13.8-6.9 20.7-18.5 21.7H357.6c-11.6-1-17.4-7.9-18.5-21.7z"  horiz-adv-x="1024" />

    
    <glyph glyph-name="shoushu3" unicode="&#58890;" d="M512 384m-375 0a375 375 0 1 1 750 0 375 375 0 1 1-750 0ZM331.6 603.2h364.9c29.5 1.4 43.6-15.5 42.2-50.6v-333.3c1.4-33.8-16.9-49.9-54.8-48.5H346.4c-42.2-1.4-62.6 15.5-61.2 50.6V552.6c-1.4 33.7 14.1 50.6 46.4 50.6z m208.9-240.5V546.3h-59.1v-75.9c1.4-97-28.1-162.4-88.6-196.2-28.1-11.3-43.6-4.2-46.4 21.1v-46.4c-1.4-15.5 5.6-22.5 21.1-21.1h291.1c12.7 0 19 7 19 21.1v54.8h-78c-42.3-2.9-62 16.9-59.1 59zM422.3 472.4v73.8h-61.2c-9.9-1.4-14.8-7.1-14.8-16.9V312c1.4 4.2 7 10.5 16.9 19 39.4 28.2 59.1 75.3 59.1 141.4z m206.8-111.8h48.5V531.5c-1.4 8.4-6.3 13.3-14.8 14.8h-63.3v-151.9c-2.8-25.3 7.1-36.6 29.6-33.8z"  horiz-adv-x="1024" />

    
    <glyph glyph-name="zhutiyanse" unicode="&#58891;" d="M512-4.4c-50.5 0-100.2 10.4-147.8 31-45.9 19.8-87.5 48-123.7 83.8-36.3 36-65 77.5-85.1 123.4-21.1 48.1-31.8 98.6-31.8 150.2 0 104.5 39.6 201.7 111.5 273.6 36.1 36.1 78.9 64.4 127 83.9 50.3 20.5 105.1 30.8 162.9 30.8 58.2 0 112.5-10.6 161.4-31.6 44.9-19.2 84.6-46.8 117.8-81.8 30.9-32.6 55.1-70.2 71.8-111.8 15.9-39.6 24.3-81.8 24.3-122.2 0-33-5.6-63.4-16.6-90.4-10.1-24.8-24.9-46.8-43.9-65.5-22.9-22.5-51.3-39.6-84.4-50.8-28.9-9.8-60.3-14.7-91-14.1-42.9 0-73.6-4.6-91.2-13.6-12.3-6.3-17.4-13.9-17.4-26.3 0-15.4 5.7-20.5 15.1-28.9 11.7-10.4 27.7-24.6 27.7-58.6 0.2-46.2-37.1-81.1-86.6-81.1z m13 744.8c-53.6 0-104.3-9.6-150.8-28.5-44.2-18-83.4-43.9-116.5-76.9-65.9-65.9-102.1-155-102.1-251 0-47.2 9.8-93.4 29.1-137.4 18.5-42.2 44.9-80.4 78.3-113.5 33.3-32.9 71.6-58.9 113.8-77.1 43.6-18.8 89-28.3 135.1-28.3 31.7 0 54.8 20.7 54.8 49.2 0 19.6-6.7 25.6-17 34.7-10.9 9.7-25.9 23-25.9 52.8 0 24.5 11.7 42.9 34.8 54.7 22.5 11.5 57.2 17.1 106 17.1h0.3c58.7-1.1 115.7 19.7 152.5 55.8 33.8 33.1 50.9 77.8 50.9 133 0 36.3-7.6 74.4-22 110.2-15.2 37.9-37.2 72.1-65.3 101.7-44.7 47.2-125.5 103.5-256 103.5zM284.9 368c-20.5 0-39.9 8.1-54.6 22.8-14.7 14.7-22.8 34.1-22.8 54.6s8.1 39.9 22.8 54.6c14.7 14.7 34.1 22.8 54.6 22.8s39.9-8.1 54.6-22.8c14.7-14.7 22.8-34.1 22.8-54.6s-8.1-39.9-22.8-54.6c-14.8-14.7-34.2-22.8-54.6-22.8z m352.8 165.7c-17.5 0-34 6.9-46.5 19.5-12.6 12.6-19.5 29.1-19.5 46.5 0 17.5 6.9 34 19.5 46.5 12.6 12.6 29.1 19.5 46.5 19.5s34-6.9 46.5-19.5c12.6-12.6 19.5-29.1 19.5-46.5 0-17.5-6.9-34-19.5-46.5-12.5-12.6-29.1-19.5-46.5-19.5z m98-198c-17.5 0-34 6.9-46.5 19.5-12.6 12.6-19.5 29.1-19.5 46.5 0 17.5 6.9 34 19.5 46.5 12.6 12.6 29.1 19.5 46.5 19.5s34-6.9 46.5-19.5c12.6-12.6 19.5-29.1 19.5-46.5 0-17.5-6.9-34-19.5-46.5-12.5-12.6-29.1-19.5-46.5-19.5z m-314 209c-17.5 0-34 6.9-46.5 19.5-12.6 12.6-19.5 29.1-19.5 46.5 0 17.5 6.9 34 19.5 46.5 12.6 12.6 29.1 19.5 46.5 19.5s34-6.9 46.5-19.5c12.6-12.6 19.5-29.1 19.5-46.5 0-17.5-6.9-34-19.5-46.5-12.5-12.6-29.1-19.5-46.5-19.5zM512-11.4c-51.4 0-102.1 10.6-150.6 31.5-46.7 20.2-89.1 48.8-125.8 85.2-37 36.6-66.1 78.9-86.6 125.6-21.5 48.9-32.4 100.4-32.4 153 0 106.4 40.3 205.3 113.6 278.5 36.8 36.8 80.3 65.5 129.3 85.5 51.1 20.8 106.8 31.3 165.5 31.3 59.1 0 114.3-10.8 164.2-32.2 45.8-19.6 86.2-47.7 120.2-83.4 31.5-33.2 56.1-71.6 73.2-114 16.2-40.4 24.8-83.5 24.8-124.8 0-33.9-5.8-65.2-17.1-93-10.5-25.7-25.8-48.5-45.5-67.8-23.7-23.2-52.9-40.8-87.1-52.5-29.6-10.1-61.9-15.1-93.3-14.5-41.8 0-71.4-4.3-88-12.8-10-5.1-13.6-10.4-13.6-20 0-12.3 3.7-15.6 12.8-23.7 12-10.6 30-26.7 30-63.8 0.2-50.2-40.2-88.1-93.6-88.1z m13 776.8c-56.9 0-110.8-10.2-160.2-30.3-47.3-19.2-89.3-47-124.7-82.4-70.6-70.6-109.5-166-109.5-268.6 0-50.7 10.5-100.2 31.2-147.4 19.8-45.1 47.9-85.9 83.7-121.3C281 80.2 321.9 52.5 367 33c46.7-20.2 95.5-30.4 145-30.4 45.5 0 79.8 31.9 79.8 74.2 0 30.8-14.1 43.3-25.3 53.4-9.8 8.7-17.5 15.6-17.5 34.1 0 15 6.5 25 21.2 32.5 18.6 9.5 50.4 14.4 94.4 14.4h0.1c29.8-0.6 60.4 4.2 88.6 13.8 32.1 10.9 59.6 27.5 81.8 49.2 18.3 17.9 32.5 39.2 42.3 63.1 10.7 26.1 16.1 55.6 16.1 87.7 0 39.5-8.2 80.8-23.8 119.5-16.4 40.8-40.1 77.7-70.4 109.6-32.6 34.4-71.5 61.3-115.5 80.2-48.2 20.6-101.6 31.1-158.8 31.1z m-13-744.8c-47 0-93.4 9.7-137.9 28.9-43.1 18.6-82.1 45-116 78.6-34.1 33.7-61 72.7-79.8 115.7-19.7 44.9-29.7 92-29.7 140.2 0 97.8 37 188.7 104.2 255.9 33.7 33.7 73.7 60.1 118.8 78.5 47.3 19.2 98.9 29 153.4 29 133 0 215.4-57.5 261.1-105.6 28.7-30.3 51.2-65.2 66.7-103.9 14.7-36.6 22.5-75.7 22.5-112.8 0-57.1-17.8-103.5-53-138-38.1-37.4-97-59-157.5-57.8h-0.2c-47.6 0-81.2-5.3-102.7-16.4-20.8-10.7-31-26.5-31-48.5 0-26.7 13-38.3 23.5-47.6 10.8-9.6 19.3-17.2 19.3-39.9 0.1-32.6-25.9-56.3-61.7-56.3z m13 712.8c-52.7 0-102.5-9.4-148.2-27.9-43.3-17.6-81.7-43-114.1-75.4-64.5-64.5-100.1-151.9-100.1-246 0-46.2 9.6-91.5 28.5-134.6 18.2-41.4 44-78.9 76.9-111.4 32.7-32.3 70.2-57.8 111.7-75.7 42.7-18.4 87.2-27.8 132.3-27.8 27.7 0 47.8 17.7 47.8 42.2 0 16.5-4.9 20.8-14.6 29.5-11.2 10-28.2 25.1-28.2 58 0 27 13.3 48 38.6 61 23.5 12 59.2 17.9 109.2 17.9h4.9c55.3 0 108.5 20 143.1 53.9 32.4 31.7 48.8 74.8 48.8 128 0 35.4-7.4 72.6-21.5 107.6-14.9 37-36.4 70.5-63.9 99.5C732.1 678.3 653 733.4 525 733.4z m210.7-404.7c-19.3 0-37.6 7.6-51.5 21.5-13.9 13.9-21.5 32.2-21.5 51.5s7.6 37.6 21.5 51.5c13.9 13.9 32.2 21.5 51.5 21.5s37.6-7.6 51.5-21.5c13.9-13.9 21.5-32.2 21.5-51.5s-7.6-37.6-21.5-51.5c-13.9-13.9-32.2-21.5-51.5-21.5z m0 132c-15.6 0-30.4-6.2-41.6-17.4-11.2-11.2-17.4-26-17.4-41.6s6.2-30.4 17.4-41.6c11.2-11.2 26-17.4 41.6-17.4 15.6 0 30.4 6.2 41.6 17.4 11.2 11.2 17.4 26 17.4 41.6s-6.2 30.4-17.4 41.6c-11.3 11.3-26 17.4-41.6 17.4zM284.9 361c-22.4 0-43.5 8.8-59.6 24.9-16 16-24.9 37.2-24.9 59.5 0 22.4 8.8 43.5 24.9 59.6 16 16.1 37.2 24.9 59.6 24.9s43.5-8.8 59.5-24.9c16-16 24.9-37.2 24.9-59.6s-8.8-43.5-24.9-59.5c-16-16.1-37.2-24.9-59.5-24.9z m0 154.9c-18.6 0-36.2-7.4-49.7-20.8-13.4-13.4-20.8-31-20.8-49.7 0-18.6 7.4-36.2 20.8-49.6s31-20.8 49.7-20.8c18.6 0 36.2 7.4 49.6 20.8 13.4 13.4 20.8 31 20.8 49.6s-7.4 36.2-20.8 49.7c-13.4 13.4-31 20.8-49.6 20.8z m352.8 10.8c-19.3 0-37.6 7.6-51.5 21.5-13.9 13.9-21.5 32.2-21.5 51.5s7.6 37.6 21.5 51.5c13.9 13.9 32.2 21.5 51.5 21.5s37.6-7.6 51.5-21.5c13.9-13.9 21.5-32.2 21.5-51.5s-7.6-37.6-21.5-51.5c-13.9-13.9-32.2-21.5-51.5-21.5z m0 132c-15.6 0-30.4-6.2-41.6-17.4-11.2-11.2-17.4-26-17.4-41.6s6.2-30.4 17.4-41.6c11.2-11.2 26-17.4 41.6-17.4 15.6 0 30.4 6.2 41.6 17.4 11.2 11.2 17.4 26 17.4 41.6s-6.2 30.4-17.4 41.6c-11.3 11.3-26 17.4-41.6 17.4z m-216-121c-19.3 0-37.6 7.6-51.5 21.5-13.9 13.9-21.5 32.2-21.5 51.5s7.6 37.6 21.5 51.5c13.9 13.9 32.2 21.5 51.5 21.5s37.6-7.6 51.5-21.5c13.9-13.9 21.5-32.2 21.5-51.5s-7.6-37.6-21.5-51.5c-13.9-13.9-32.2-21.5-51.5-21.5z m0 132c-15.6 0-30.4-6.2-41.6-17.4-11.2-11.2-17.4-26-17.4-41.6s6.2-30.4 17.4-41.6c11.2-11.2 26-17.4 41.6-17.4 15.6 0 30.4 6.2 41.6 17.4 11.2 11.2 17.4 26 17.4 41.6s-6.2 30.4-17.4 41.6c-11.3 11.3-26 17.4-41.6 17.4z"  horiz-adv-x="1024" />

    
    <glyph glyph-name="zhengfuyashoushushi" unicode="&#58894;" d="M512 9c-207.1 0-375 167.9-375 375s167.9 375 375 375 375-167.9 375-375-167.9-375-375-375zM512 648.2c-145.7 0-264.2-118.5-264.2-264.2S366.3 119.8 512 119.8 776.2 238.4 776.2 384c0 145.7-118.5 264.2-264.2 264.2z m0-496.8c-128.2 0-232.5 104.3-232.5 232.5S383.8 616.4 512 616.4 744.5 512.2 744.5 384c0-128.1-104.3-232.6-232.5-232.6zM355.9 339.7c-16 0-29-13-29-29s13-29 29-29 29 13 29 29-13 29-29 29zM375.9 421.7c0 16-13 29-29 29s-29-13-29-29 13-29 29-29 29 13 29 29zM515.3 511.6c16 0 29 13 29 29s-13 29-29 29-29-13-29-29 13-29 29-29zM404.4 540.6c-16 0-29-13-29-29s13-29 29-29 29 13 29 29c-0.1 16-13 29-29 29zM681.7 442.4c-16 0-29-13-29-29s13-29 29-29 29 13 29 29-13 29-29 29zM670.4 334.3c-16 0-29-13-29-29s13-29 29-29 29 13 29 29-13 29-29 29zM651.4 504.9c0 16-13 29-29 29s-29-13-29-29 13-29 29-29 29 13 29 29zM550.4 310.2c-0.2 0.3-0.6 1.1-1.2 1.5l-58.1 61.6c-3 3.7-9 2-9.6-2.8l-11.1-76.7c-0.1-0.2-0.1-0.4-0.1-0.7-2.2-8-2.5-16.5-0.7-24.7 5.8-26.5 31.1-43.6 56.3-38 25.2 5.4 41 31.5 35.1 58.1-1.8 8-5.5 15.6-10.6 21.7z m-34.5-63.7c-16 0-29 13-29 29s12.9 29 29 29c16 0 29-13 29-29s-13-29-29-29z"  horiz-adv-x="1024" />

    
    <glyph glyph-name="qianfangshoushushi" unicode="&#58895;" d="M512 9c-207.1 0-375 167.9-375 375s167.9 375 375 375 375-167.9 375-375-167.9-375-375-375zM764.7 292.1c0 0.1-0.1 0.1-0.1 0.2-21.7 63.2-21.7 123.2-0.1 183.1 0 0.1 0.1 0.1 0.1 0.2 2.1 4.3 2.1 9.1 0.3 13.1-1.6 4-4.9 7.4-9.3 9-0.1 0-0.2 0.1-0.2 0.1-60 29.4-102.4 71.7-129.5 129.4 0 0.1-0.1 0.2-0.1 0.2-1.6 4.5-4.9 7.9-9 9.5-4 1.7-8.7 1.7-12.9-0.2-0.1 0-0.1-0.1-0.2-0.1-63.2-21.7-123.2-21.7-183.1-0.1-0.2 0.1-0.3 0.2-0.5 0.2-1 0.4-1.9 0.8-2.9 1-3.3 0.8-6.8 0.7-10.1-0.7-4.8-2-8.1-6-9.3-10.7-27.1-57.2-69.4-99.3-129.1-128.5-0.1 0-0.2-0.1-0.3-0.1-2.1-0.8-4-2-5.5-3.5-1.5-1.4-2.7-3.2-3.6-5.2 0-0.1-0.1-0.2-0.1-0.3-1.7-4.1-1.7-8.8 0.3-13.1 0-0.1 0.1-0.1 0.1-0.2 21.5-59.8 21.5-119.5 0-182.6-0.5-1.1-0.9-2.2-1.2-3.4-0.9-3.4-0.6-7 0.7-10.2 1.7-4.1 5-7.5 9.5-9.1 0.1 0 0.2-0.1 0.2-0.1 57.5-27 99.7-69.3 129.1-129.1 0.9-2.7 2.5-5.2 4.7-7.1 1.3-1.2 2.9-2.1 4.5-2.8 4.1-1.7 8.9-1.8 13.2 0.3 0.1 0 0.2 0.1 0.2 0.1 59.9 21.6 119.8 21.5 183.1-0.1 2.2-1.1 4.6-1.6 6.9-1.6 2.1 0 4.3 0.4 6.2 1.3 4.1 1.7 7.4 5 9 9.5 29.4 60 71.7 102.4 129.4 129.5 0.1 0 0.2 0.1 0.2 0.1 4.5 1.6 7.9 5 9.5 9.1 1.8 4 1.9 8.7-0.1 12.9zM369.3 530.4c16 16.2 30.1 34.3 42.2 54.1l70.9-171L311 484.6c21.7 13.3 41.3 28.6 58.3 45.8z m42-347.3c-13.3 21.7-28.6 41.2-45.8 58.2-16.3 16.1-34.6 30.3-54.5 42.4l171.4 71-71.1-171.6z m247.2 58.2c-17.2-17.1-32.6-36.6-45.8-58.3l-71.1 171.5 171.1-70.9c-19.9-12.2-38-26.3-54.2-42.3z m-117 172.4l70.9 170.9c12-19.9 26.2-38 42.2-54.2 17-17.2 36.5-32.5 58.2-45.8l-171.3-70.9z"  horiz-adv-x="1024" />

    
    <glyph glyph-name="qiangjingshoushushi" unicode="&#58896;" d="M512 9c-207.1 0-375 167.9-375 375s167.9 375 375 375 375-167.9 375-375-167.9-375-375-375zM691.9 500.7c-9.7 21.9-24.3 43.8-41.4 60.8-36.5 38.9-87.6 58.4-138.7 58.4-51.1 0-102.2-19.5-138.7-58.4-36.5-34.1-56-85.2-56-136.3 0-51.1 19.5-102.2 56-138.7 21.9-21.9 48.7-38.9 80.3-48.7l-26.8-48.6h-34.1c-9.7 0-17-7.3-17-17s7.3-17 17-17H631c9.7 0 17 7.3 17 17s-7.3 17-17 17h-31.6l-26.8 51c12.2 4.9 24.3 9.7 36.5 17 60.9 34.1 97.4 99.8 97.4 167.9 0 26.9-4.9 51.2-14.6 75.6z m-180.1 65.7c14.6 0 24.3-9.7 24.3-24.3 0-12.2-12.2-24.3-24.3-24.3-12.2 0-24.3 9.7-24.3 24.3-0.1 12.1 12.1 24.3 24.3 24.3z m0-277.5c-56 0-102.2 46.2-102.2 102.2 0 58.4 46.2 104.7 102.2 104.7S614 449.5 614 393.6c0-58.4-46.2-104.7-102.2-104.7z m0 0M511.8 469c-43.8 0-77.9-34.1-77.9-77.9 0-43.8 34.1-77.9 77.9-77.9 43.8 0 77.9 34.1 77.9 77.9 0 43.8-34.1 77.9-77.9 77.9M469.8 421.2m-20.5 0a20.5 20.5 0 1 1 41 0 20.5 20.5 0 1 1-41 0Z"  horiz-adv-x="1024" />

    
    <glyph glyph-name="jiqirenshoushushi" unicode="&#58897;" d="M512 9c-207.1 0-375 167.9-375 375s167.9 375 375 375 375-167.9 375-375-167.9-375-375-375zM392.1 391.1h65.8v-65.8h-65.8zM197 391.1c-8.6 0-14.4-6.9-14.4-17.3V308c0-10.4 5.8-17.3 14.4-17.3 8.6 0 14.4 6.9 14.4 17.3v65.8c0 10.3-5.8 17.3-14.4 17.3zM247 425.7c-6 0-15-6.9-15-17.3v-135c0-10.4 6-17.3 15-17.3s15 6.9 15 17.3v135c0.1 10.3-6 17.3-15 17.3zM561.7 391.1h65.8v-65.8h-65.8zM827 391.1c-8.6 0-14.4-6.9-14.4-17.3V308c0-10.4 5.7-17.3 14.4-17.3 8.6 0 14.4 6.9 14.4 17.3v65.8c0 10.3-5.7 17.3-14.4 17.3zM774.4 425.7c-9 0-15-6.9-15-17.3v-135c0-10.4 6-17.3 15-17.3s15 6.9 15 17.3v135c0 10.3-9 17.3-15 17.3zM693.3 526H527.1v34.6c38.1 6.9 65.8 41.5 65.8 83.1V661h-34.6c3.5-6.9 3.5-10.4 3.5-17.3 0-27.7-24.2-51.9-51.9-51.9S458 616 458 643.7c0 6.9 0 10.4 3.5 17.3h-34.6v-17.3c0-41.5 27.7-76.1 65.8-83.1V526H326.4c-17.3 0-34.6-13.8-34.6-34.6v-301.1c0-17.3 13.8-34.6 34.6-34.6h370.3c17.3 0 34.6 13.8 34.6 34.6V491.4c-3.4 20.8-17.3 34.6-38 34.6zM676 207.6H340.2V474.1H676v-266.5z"  horiz-adv-x="1024" />

    
    <glyph glyph-name="putongshoushushi" unicode="&#58900;" d="M512 9c-207.1 0-375 167.9-375 375s167.9 375 375 375 375-167.9 375-375-167.9-375-375-375zM399.1 555.7l-5.7 11.5c-7.7 15.3-3.2 27.4 13.4 36.4 16.6 5.1 30 0.6 40.2-13.4 5.1-12.8 11.5-24.3 19.1-34.5h109.1c3.8 8.9 8.3 19.8 13.4 32.5 6.4 14 17.9 19.1 34.5 15.3 15.3-6.4 21.1-17.2 17.2-32.5-3.8-7.7-5.7-12.8-5.7-15.3h67c12.7-1.3 20.4-10.2 23-26.8-1.3-16.6-8.3-24.9-21.1-24.9H596.2v-70.8h19.1c5.1 10.2 12.7 27.4 23 51.7 6.4 12.7 17.9 16.6 34.5 11.5 16.6-7.7 22.3-17.9 17.2-30.6-3.8-7.7-7.7-16-11.5-24.9-1.3-2.6-2.6-5.1-3.8-7.7h40.2c12.7-1.3 20.4-10.2 23-26.8-1.3-17.9-8.3-26.8-21.1-26.8H307.2c-12.8 0-19.8 8.3-21.1 24.9 1.3 16.6 8.9 25.5 23 26.8h55.5c-8.9 6.4-18.5 17.9-28.7 34.5-6.4 10.2-3.8 19.8 7.7 28.7 11.5 7.7 22.3 7.7 32.5 0 10.2-11.5 20.4-24.3 30.6-38.3 2.5-10.2 1.3-17.9-3.8-23h34.5V504H320.6c-15.3 0-23 8.3-23 24.9 1.3 16.6 9.6 25.5 24.9 26.8h76.6z m-61.3-352.2V322.1c0 24.2 11.5 37 34.5 38.3h275.6c28.1 0 42.1-11.5 42.1-34.5v-120.6c0-29.3-14.7-44-44-44H374.2c-25.6-1.2-37.7 12.8-36.4 42.2z m55.5 84.2h235.4v23H393.3v-23zM628.8 213v24.9H393.3V213h235.5zM492.9 504v-70.8h44V504h-44z"  horiz-adv-x="1024" />

    
    <glyph glyph-name="zajiaoshoushushi" unicode="&#58901;" d="M512 9c-207.1 0-375 167.9-375 375s167.9 375 375 375 375-167.9 375-375-167.9-375-375-375zM643.8 468.7c-10.2 97.9-93.3 174.5-193.8 174.5-107.5 0-194.9-87.4-194.9-194.9 0-86.9 57.2-160.8 136-185.8 16.3-85.7 91.8-150.6 182.1-150.6 102.2 0 185.4 83.2 185.4 185.4-0.1 77.2-47.5 143.6-114.8 171.4zM305 448.3c0 79.9 65 144.9 144.9 144.9 68.4 0 125.8-47.6 141-111.4-5.9 0.6-11.8 0.9-17.8 0.9-95.6 0-174.5-72.7-184.4-165.7-49.3 23.1-83.7 73.2-83.7 131.3z m268.1-286.4c-59.3 0-109.9 38.3-128.1 91.6 1.6 0 3.3-0.1 4.9-0.1 95.8 0 175.6 69.4 191.9 160.6 39.9-23.6 66.7-67 66.7-116.6 0-74.8-60.7-135.5-135.4-135.5z"  horiz-adv-x="1024" />

    
    <glyph glyph-name="hecishoushushi" unicode="&#58902;" d="M512 9c-207.1 0-375 167.9-375 375s167.9 375 375 375 375-167.9 375-375-167.9-375-375-375zM595.5 307.3m-75.9 0a75.9 75.9 0 1 1 151.8 0 75.9 75.9 0 1 1-151.8 0ZM718.5 590.9c-55.3 55.3-128.8 85.7-206.9 85.7s-151.7-30.4-206.9-85.7C249.4 535.6 219 462.1 219 384s30.4-151.7 85.7-206.9 128.8-85.7 206.9-85.7 151.7 30.4 206.9 85.7c55.3 55.3 85.7 128.8 85.7 206.9s-30.4 151.7-85.7 206.9zM669 226.6c-42.1-42.1-98-65.2-157.4-65.2-55.6 0-108.1 20.3-149.1 57.3h67.7c49.4 0 89.4 40 89.4 89.4 0 49.4-40 89.4-89.4 89.4H289.3c3.2 54.4 25.9 105.2 64.8 144.1 42.1 42.1 98 65.2 157.4 65.2s115.4-23.2 157.4-65.2 65.2-98 65.2-157.4-23-115.6-65.1-157.6z"  horiz-adv-x="1024" />

    
    <glyph glyph-name="icon-test" unicode="&#58905;" d="M512 742.4c-197.8 0-358.4-160.6-358.4-358.4 0-197.8 160.6-358.4 358.4-358.4 197.8 0 358.4 160.6 358.4 358.4 0 197.8-160.6 358.4-358.4 358.4zM512 742.4c-197.8 0-358.4-160.6-358.4-358.4 0-197.8 160.6-358.4 358.4-358.4 197.8 0 358.4 160.6 358.4 358.4 0 197.8-160.6 358.4-358.4 358.4zM387.1 186.2v56.1l42.2 44.2c76.6 78.2 113.1 123.7 113.1 169.6 0 32.8-15.6 49.1-45.9 49.1-23.3 0-45.1-13.5-59-24.6l-16.4-13.1-29.5 70 9 7.8c28.3 23.3 67.2 36.9 106.9 36.9 38.9 0 70.9-12.7 92.6-36.9 18.8-21.3 29.5-50.8 29.5-83.1 0-75.4-55.3-137.6-111.8-194.6L514 264h122.9v-77.8H387.1z m0 0"  horiz-adv-x="1024" />

    
    <glyph glyph-name="xuanzhong" unicode="&#58907;" d="M512 384m-360 0a360 360 0 1 1 720 0 360 360 0 1 1-720 0ZM512 24c198.8 0 360 161.2 360 360S710.8 744 512 744 152 582.8 152 384s161.2-360 360-360z m171.5 440.8L486.9 265c-4.6-4.7-11-7.6-18.1-7.6-7.1 0-13.5 2.9-18.1 7.6L339.5 378c-4.7 4.7-7.5 11.2-7.5 18.3v0.1c0 14.4 11.5 26 25.6 26 7.1 0 13.5-2.9 18.1-7.6l93-94.5 178.5 181.4c4.6 4.7 11 7.6 18.1 7.6 14.1 0 25.6-11.7 25.6-26 0.2-7.2-2.7-13.8-7.4-18.5z m0 0"  horiz-adv-x="1024" />

    
    <glyph glyph-name="wode" unicode="&#58908;" d="M825.4 61.5c-13.4 75.4-51.8 144.2-108.1 193.9-30.4 26.8-65.1 47.1-102.2 60.4 19.8 10.4 38.1 23.8 54.4 40 42 42 65.2 97.9 65.2 157.4s-23.2 115.4-65.2 157.4-97.9 65.2-157.4 65.2-115.4-23.2-157.4-65.2-65.2-97.9-65.2-157.4 23.2-115.4 65.2-157.4c16.2-16.2 34.6-29.7 54.4-40-37.1-13.3-71.9-33.6-102.2-60.4-56.3-49.6-94.7-118.5-108.1-193.9-2.4-13.6 6.6-26.6 20.2-29 1.5-0.3 2.9-0.4 4.4-0.4 11.9 0 22.4 8.5 24.6 20.6 23.6 133.9 134.7 231 264 231s240.4-97.1 264.1-230.9c2.4-13.6 15.4-22.7 29-20.2 13.6 2.4 22.7 15.4 20.3 28.9z m-486 451.7c0 95.2 77.4 172.6 172.6 172.6s172.6-77.4 172.6-172.6S607.2 340.6 512 340.6s-172.6 77.5-172.6 172.6z"  horiz-adv-x="1024" />

    
    <glyph glyph-name="zhuye" unicode="&#58909;" d="M887.9 448c-0.4 0.3-0.8 0.7-1.2 1L541 718.2c-16.5 13.9-41.6 13.9-58 0L137.3 449c-0.4-0.3-0.8-0.7-1.2-1-12.9-11.4-17.4-29-11.4-44.8 6.3-16.7 22.5-27.5 41.1-27.5h70.8v-311.3c0-13.8 11.2-25 25-25H762.2c13.8 0 25 11.2 25 25V375.7h71c18.6 0 34.8 10.8 41.1 27.5 6 15.8 1.5 33.4-11.4 44.8zM471 89.3V213.1h82v-123.7h-82z m291.2 336.4c-13.8 0-25-11.2-25-25v-311.3H603V238.1c0 13.8-11.2 25-25 25H446c-13.8 0-25-11.2-25-25v-148.7H286.6V400.7c0 13.8-11.2 25-25 25h-73L512 677.4l323.3-251.8h-73.1z"  horiz-adv-x="1024" />

    
    <glyph glyph-name="shoushu4" unicode="&#58910;" d="M863.6 671.7c0 13.8-11.2 25-25 25H185.4c-13.8 0-25-11.2-25-25v-575.3c0-13.8 11.2-25 25-25h653.1c13.8 0 25 11.2 25 25V481.8v0.6V671.7z m-653.2-25h603.1v-138.6H210.4V646.7z m603.2-525.4H210.4V456.8h603.1v-335.5zM390 257.1h90v-71.6c0-17.7 14.3-32 32-32s32 14.3 32 32v71.6h90c17.7 0 32 14.3 32 32s-14.3 32-32 32h-90v71.6c0 17.7-14.3 32-32 32s-32-14.3-32-32v-71.6h-90c-17.7 0-32-14.3-32-32s14.3-32 32-32z"  horiz-adv-x="1024" />

    
    <glyph glyph-name="mianzhuye" unicode="&#58911;" d="M887.9 448c-0.4 0.3-0.8 0.7-1.2 1L541 718.2c-16.5 13.9-41.6 13.9-58 0L137.3 449c-0.4-0.3-0.8-0.7-1.2-1-12.9-11.4-17.4-29-11.4-44.8 6.3-16.7 22.5-27.5 41.1-27.5h70.8v-311.3c0-13.8 11.2-25 25-25H418c13.8 0 25 11.2 25 25V193.1h138v-128.7c0-13.8 11.2-25 25-25h156.2c13.8 0 25 11.2 25 25V375.7h71c18.6 0 34.8 10.8 41.1 27.5 6 15.8 1.5 33.4-11.4 44.8z"  horiz-adv-x="1024" />

    
    <glyph glyph-name="mianwode" unicode="&#58912;" d="M800.7 33c1.4 0 2.8 0.1 4.2 0.4 13.1 2.3 21.9 14.9 19.5 28-13.4 75.2-51.6 143.8-107.8 193.4-30.8 27.1-66.1 47.7-103.8 60.9 20.4 10.4 39.3 24.1 55.9 40.8 41.9 41.9 64.9 97.6 64.9 156.8S710.7 628.1 668.8 670c-41.9 41.9-97.6 65-156.8 65s-114.9-23.1-156.8-65c-41.9-41.9-64.9-97.6-64.9-156.8s23.1-114.9 64.9-156.8c16.7-16.7 35.5-30.3 55.9-40.8-37.7-13.2-73-33.8-103.8-60.9-56.2-49.5-94.5-118.2-107.8-193.4-2.3-13.1 6.4-25.7 19.5-28"  horiz-adv-x="1024" />

    
    <glyph glyph-name="mianshoushu" unicode="&#58913;" d="M838.6 696.7H185.4c-13.8 0-25-11.2-25-25v-122.6c0-13.8 11.2-25 25-25h653.1c13.8 0 25 11.2 25 25V671.7c0.1 13.8-11.1 25-24.9 25zM838.6 478.1H185.4c-13.8 0-25-11.2-25-25v-356.8c0-13.8 11.2-25 25-25h653.1c13.8 0 25 11.2 25 25V453.1c0.1 13.8-11.1 25-24.9 25zM621.6 310h-80.8v64.3c0 15.9-12.9 28.7-28.7 28.7-15.9 0-28.7-12.9-28.7-28.7V310h-80.8c-15.9 0-28.7-12.9-28.7-28.7 0-15.9 12.9-28.7 28.7-28.7h80.8v-64.3c0-15.9 12.9-28.7 28.7-28.7 15.9 0 28.7 12.9 28.7 28.7v64.3h80.8c15.9 0 28.7 12.9 28.7 28.7 0 15.8-12.9 28.7-28.7 28.7z"  horiz-adv-x="1024" />

    
    <glyph glyph-name="endoscope" unicode="&#58898;" d="M423.109333-117.472c-106.917333 19.850667-194.906667 65.930667-270.778666 141.802667-56.085333 56.085333-92.656 113.632-119.488 188.010666C-34.133333 398.005333 12.058667 603.397333 152.330667 743.669333 208.416 799.754667 265.962667 836.325333 340.341333 863.157333 526.005333 930.133333 731.397333 883.941333 871.669333 743.669333c56.085333-56.085333 92.656-113.632 119.488-188.010666 66.976-185.664 20.784-391.056-119.488-531.328-78.517333-78.522667-174.965333-127.157333-286.362666-144.410667-63.306667-9.802667-98.4-9.237333-162.197334 2.608zM608-67.562667c130.592 27.328 256.586667 125.306667 315.488 245.338667 67.189333 136.933333 67.189333 275.514667 0 412.448-41.616 84.810667-120.453333 163.648-205.264 205.264C618.954667 844.197333 519.989333 857.317333 416 835.562667c-130.592-27.328-256.586667-125.306667-315.488-245.338667-67.189333-136.933333-67.189333-275.514667 0-412.448 58.133333-118.464 184.282667-217.525333 311.930667-244.938667 60.949333-13.093333 134.176-13.242667 195.557333-0.4z m-316.581333 227.728c-7.306667 8.805333-6.773333 15.770667 2.858666 37.333334 19.466667 43.541333 25.637333 104.197333 25.68 252.277333L320 590.224h120.890667V381.546667c0-236.138667 0.922667-232.213333-54.842667-232.213334-22.853333 0-29.605333 2.949333-32.554667 14.224-3.237333 12.373333-0.213333 14.218667 23.301334 14.218667 33.226667 0 35.648 5.365333 35.648 78.805333v56.309334H350.282667l-4.938667-43.637334C340.165333 223.450667 315.930667 149.333333 306.138667 149.333333c-3.152 0-9.776 4.874667-14.72 10.826667z m121.024 227.392v46.218667h-64V341.333333h64zM408.890667 512v46.224L378.666667 560.410667l-30.224 2.186666v-101.194666l30.224 2.186666 30.224 2.186667z m58.624-343.109333c-1.461333 2.933333-2.453333 10.133333-2.197334 16 0.362667 8.405333 12.890667 11.104 59.125334 12.730666l58.666666 2.064v127.424h-46.218666c-41.482667 0-46.224 1.461333-46.224 14.224 0 13.632 4.741333 14.224 113.776 14.224 108.154667 0 113.781333-0.693333 113.781333-13.898666 0-12.213333-5.834667-14.154667-48-16l-48-2.101334L620.16 261.333333l-2.053333-62.224h64.277333c63.824 0 64.277333-0.122667 64.277333-17.776v-17.776h-138.245333c-76.037333 0-139.445333 2.4-140.906667 5.333334z m3.242666 216.533333c-4.693333 4.693333-8.533333 10.634667-8.533333 13.205333s23.744 24.16 52.768 47.984c43.898667 36.032 54.176 41.621333 61.12 33.253334 4.586667-5.530667 7.242667-13.088 5.893333-16.789334-2.064-5.674667-96.576-86.186667-101.173333-86.186666-0.848 0-5.386667 3.84-10.08 8.533333zM682.666667 416.933333c-51.578667 43.061333-54.277333 46.922667-40.714667 58.181334 7.370667 6.117333 20.282667-0.496 56.917333-29.157334 48.336-37.813333 54.613333-47.546667 38.906667-60.362666-6.48-5.290667-21.397333 3.189333-55.109333 31.338666zM476.442667 511.504V554.666667H605.408l-15.893333 22.330666c-15.098667 21.205333-15.264 22.8-3.242667 31.594667 11.024 8.058667 15.04 6.432 31.008-12.538667 16.885333-20.064 17.386667-22.501333 6.309333-30.597333-6.618667-4.842667-12.037333-10.048-12.042666-11.573333-0.005333-1.525333 27.994667-2.773333 62.218666-2.773334H736l2.133333-40.885333c2.069333-39.648 1.578667-40.890667-16-40.890667-15.984 0-18.133333 2.949333-18.133333 24.890667v24.885333H512.901333L510.672 496c-1.706667-17.712-5.962667-23.642667-18.229333-25.386667-15.082667-2.138667-16 0.197333-16 40.890667z"  horiz-adv-x="1024" />

    
    <glyph glyph-name="pressure" unicode="&#58899;" d="M408.890667-109.626667c-180.997333 40.325333-320.64 166.522667-378.794667 342.314667C14.133333 280.949333 11.776 300.24 11.626667 384c-0.16 85.370667 1.92 102.298667 18.805333 152.890667C141.301333 869.093333 535.733333 994.794667 815.573333 787.104c84.149333-62.453333 155.248-168.373333 184.661334-275.104 9.312-33.786667 12.586667-70.133333 12.16-135.109333-0.501333-77.029333-3.152-96.48-19.877334-145.781334-56.576-166.773333-185.834667-289.034667-354.165333-335.002666-58.373333-15.941333-171.013333-18.757333-229.461333-5.733334z m224 63.914667c116.453333 34.32 223.594667 123.818667 276.352 230.842667 65.685333 133.242667 65.898667 264.058667 0.650666 396.432-91.349333 185.317333-303.050667 286.149333-497.674666 237.04-74.389333-18.773333-123.061333-42.106667-176.389334-84.581334-81.2-64.666667-138.058667-155.2-160.416-255.424-55.264-247.786667 120-498.517333 376.144-538.106666 38.042667-5.877333 141.205333 1.973333 181.333334 13.797333z m-146.410667 180.048c-12.08 7.365333-28.832 22.122667-37.226667 32.8-29.045333 36.922667-30.042667 57.877333-9.962666 210.016 10.309333 78.08 20.48 141.76 22.613333 141.504 7.413333-0.864 167.514667-201.013333 180.656-225.834667 16.954667-32.021333 13.232-92.842667-7.381333-120.672-36.848-49.744-101.973333-66.309333-148.693334-37.813333z m104.288 50.005333c58.037333 58.037333-12.762667 155.690667-85.573333 118.037334-27.194667-14.058667-45.76-53.034667-39.296-82.48 11.834667-53.877333 85.557333-74.869333 124.869333-35.557334zM186.309333 221.866667c-10.965333 10.970667-10.965333 35.962667 0 46.933333 19.946667 19.946667 55.466667 4.917333 55.466667-23.466667 0-19.061333-12.938667-32-32-32-8.213333 0-18.773333 3.84-23.466667 8.533334z m614.186667 7.136c-9.36 13.365333-9.552 17.813333-1.312 30.224 5.312 8 16.88 14.549333 25.706667 14.549333 8.821333 0 20.389333-6.544 25.706666-14.549333 8.234667-12.410667 8.042667-16.858667-1.317333-30.224-6.037333-8.618667-17.013333-15.669333-24.389333-15.669334-7.381333 0-18.357333 7.050667-24.394667 15.669334zM146.293333 423.616c-21.482667 21.482667-9.12 52.826667 20.821334 52.826667 19.061333 0 32-12.938667 32-32 0-29.946667-31.344-42.304-52.821334-20.821334z m698.154667-3.493333c-25.312 14.746667-10.88 56.32 19.557333 56.32 29.946667 0 42.304-31.344 20.826667-52.821334-12.853333-12.853333-22.826667-13.722667-40.384-3.498666zM260.053333 620.112c-9.333333 13.333333-9.546667 17.845333-1.365333 30.224 13.749333 20.821333 36.410667 22.048 49.957333 2.709333 14.090667-20.112 14.106667-23.498667 0.181334-37.424-15.738667-15.738667-35.904-13.882667-48.773334 4.490667z m466.704-7.136c-21.653333 21.653333-2.389333 58.618667 28.266667 54.24 20.885333-2.986667 33.786667-35.6 20.437333-51.68-10.933333-13.178667-36.730667-14.533333-48.704-2.56zM494.730667 715.173333C473.253333 736.650667 485.610667 768 515.557333 768c30.922667 0 42.261333-31.173333 18.992-52.229333-16.234667-14.693333-25.578667-14.832-39.818666-0.597334z"  horiz-adv-x="1024" />

    
    <glyph glyph-name="common" unicode="&#58914;" d="M427.2-120.736c-201.392 42.522667-345.829333 173.706667-406.965333 369.626667-23.658667 75.834667-23.658667 194.384 0 270.218666C76.245333 698.602667 197.397333 819.754667 376.890667 875.765333c75.834667 23.658667 194.384 23.658667 270.218666 0 179.493333-56.010667 300.645333-177.162667 356.656-356.656 23.658667-75.834667 23.658667-194.384 0-270.218666-55.584-178.133333-177.205333-300.565333-353.098666-355.445334-56.336-17.578667-172.48-24.949333-223.466667-14.186666z m180.8 53.173333c130.592 27.328 256.586667 125.306667 315.488 245.338667 67.189333 136.933333 67.189333 275.514667 0 412.448-41.616 84.810667-120.453333 163.648-205.264 205.264C618.954667 844.197333 519.989333 857.317333 416 835.562667c-130.592-27.328-256.586667-125.306667-315.488-245.338667-67.189333-136.933333-67.189333-275.514667 0-412.448 58.133333-118.464 184.282667-217.525333 311.930667-244.938667 60.949333-13.093333 134.176-13.242667 195.557333-0.4zM357.12 148.213333c-6.837333 4.341333-8.597333 30.346667-7.104 104.778667L352 352h334.224l1.968-100.501333c1.728-88.389333 0.533333-101.045333-9.893333-105.050667-6.522667-2.501333-19.296 0.32-28.384 6.277333-23.594667 15.466667-241.488 15.408-261.941334-0.064-15.834667-11.973333-18.4-12.346667-30.848-4.448zM640 224v17.776H398.224v-35.552H640z m-1.306667 76.442667l2.250667 19.557333h-242.72v-16.592c0-9.125333 2.208-18.805333 4.906667-21.504 2.704-2.698667 56.304-4.032 119.114666-2.96l114.197334 1.946667zM289.28 395.754667c-2.656 2.661333-4.837333 10.704-4.837333 17.877333 0 11.178667 6.026667 13.034667 42.250666 13.034667 23.232 0 44.106667 3.008 46.378667 6.688 2.272 3.674667-6.016 18.24-18.416 32.362666-16.976 19.333333-20.533333 27.696-14.378667 33.845334 12.053333 12.053333 9.957333 19.546667-5.472 19.546666-22.698667 0-36.138667 7.936-36.138666 21.333334 0 16.997333 13.845333 21.333333 68.138666 21.333333 41.882667 0 56.426667 6.714667 38.528 17.781333-11.904 7.36-7.962667 23.930667 7.68 32.304 12.853333 6.88 18.421333 4.106667 42.384-21.082666 26.250667-27.594667 29.642667-29.002667 69.962667-29.002667 40.746667 0 42.954667 0.949333 57.749333 24.890667 15.301333 24.752 30.154667 30.346667 48.96 18.432 6.528-4.128 8.282667-12.506667 5.2-24.778667-4.618667-18.421333-4.378667-18.544 37.568-18.544 50.874667 0 64.72-4.56 64.72-21.333333 0-13.424-13.445333-21.333333-36.272-21.333334-11.237333 0-12.933333-3.36-9.2-18.24 3.514667-14 0.064-22.954667-14.864-38.533333-10.693333-11.157333-17.301333-23.749333-14.688-27.978667 2.613333-4.229333 23.984-7.690667 47.493334-7.690666 40.256 0 42.608-0.928 40.469333-16l-2.272-16-228.053333-1.872c-125.429333-1.034667-230.229333 0.298667-232.890667 2.96z m150.170667 78.986666l2.117333 44.373334H409.226667c-17.786667 0-32.336-2.250667-32.336-4.997334 0-2.746667 9.893333-15.205333 21.989333-27.68 18.186667-18.773333 20.693333-25.12 14.474667-36.741333-8.517333-15.909333-3.306667-24.522667 12.965333-21.424 8.261333 1.568 11.541333 13.189333 13.130667 46.464z m106.666666-0.074666l2.117334 44.442666H490.666667v-41.477333c0-22.816 2.282667-43.770667 5.077333-46.56 2.794667-2.794667 14.794667-4.128 26.666667-2.965333 21.253333 2.08 21.621333 2.805333 23.706666 46.56z m74.288-26.96c-1.008 8.789333 6.16 25.408 16 37.098666 24.250667 28.816 22.549333 34.304-10.629333 34.304H597.333333v-41.477333c0-22.816 2.197333-43.68 4.890667-46.373333 9.216-9.221333 20 0.533333 18.181333 16.448z"  horiz-adv-x="1024" />

    
    <glyph glyph-name="miscellaneous" unicode="&#58916;" d="M437.589333-120.501333c-203.322667 31.610667-368.373333 182.042667-420.890666 383.610666-16.037333 61.557333-16.037333 180.224 0 241.781334 48.016 184.288 189.866667 326.122667 374.410666 374.368 61.616 16.106667 180.165333 16.106667 241.781334 0 184.538667-48.245333 326.394667-190.08 374.410666-374.368 16.037333-61.557333 16.037333-180.224 0-241.781334-17.717333-68-61.152-153.834667-103.712-204.970666-63.984-76.874667-168.336-142.826667-265.466666-167.776-54.378667-13.962667-147.978667-19.04-200.533334-10.864z m228.688 69.28c74.357333 27.434667 124.677333 61.013333 181.162667 120.917333 136.138667 144.357333 164.4 351.450667 72.293333 529.776-35.946667 69.6-129.637333 163.242667-195.52 195.424C586.666667 862.085333 438.069333 862.101333 300.389333 794.949333 233.792 762.453333 140.346667 669.317333 104.266667 599.466667 12.16 421.146667 40.426667 214.053333 176.56 69.696c54.016-57.28 104.992-92.32 169.893333-116.8 71.013333-26.778667 96.88-30.741333 183.322667-28.053333 65.68 2.037333 87.573333 5.877333 136.501333 23.930666z m-253.834666 214.197333c0 3.589333-1.877333 11.418667-4.170667 17.402667-3.402667 8.858667 3.52 11.274667 37.333333 13.024l41.504 2.154666 2.048 65.776 2.042667 65.776H277.333333V362.666667h213.333334v32.474666c0 31.226667 0.746667 32.384 19.557333 30.218667 17.493333-2.010667 19.786667-5.429333 21.738667-32.469333l2.186666-30.224h198.293334v-35.557334h-197.813334l-2.426666-75.253333c-2.08-64.608-4.373333-76.672-16.229334-85.333333-15.418667-11.253333-103.530667-14.282667-103.530666-3.546667z m-128.645334 23.125333c-7.221333 13.488-5.685333 17.290667 12.192 30.208 11.253333 8.133333 33.253333 25.845333 48.901334 39.376 56.384 48.746667 51.861333 46.512 66.8 32.997334 13.066667-11.829333 12.490667-13.082667-19.557334-42.373334C354.496 211.909333 302.149333 170.666667 296.117333 170.666667c-2.234667 0-7.776 6.944-12.32 15.434666z m377.232 22.464c-25.589333 20.224-53.696 41.568-62.464 47.434667-14.970667 10.021333-15.253333 11.642667-4.597333 26.709333l11.344 16.042667 33.344-22.517333a3229.973333 3229.973333 0 0 0 66.965333-46.757334c32.938667-23.744 33.386667-24.586667 22.293334-41.525333-6.229333-9.504-13.36-17.029333-15.84-16.72-2.485333 0.314667-25.456 17.114667-51.04 37.333333zM288.426667 392.672c-10.661333 15.216-10.08 16.16 16.373333 26.666667 43.36 17.205333 82.485333 47.84 99.285333 77.728 8.512 15.146667 15.477333 29.498667 15.477334 31.904 0 2.4-27.2 4.362667-60.448 4.362666C299.376 533.333333 298.666667 533.546667 298.666667 551.109333c0 17.568 0.709333 17.781333 60.442666 17.781334h60.448v24.885333c0 22.917333 1.690667 24.890667 21.333334 24.890667 19.637333 0 21.333333-1.973333 21.333333-24.890667v-24.885333h170.149333l2.037334-69.333334 2.032-69.333333 30.24-2.186667c27.018667-1.957333 31.002667-0.197333 37.333333 16.458667 3.904 10.261333 7.093333 28.261333 7.093333 40 0 18.832 1.888 20.778667 16 16.517333 25.6-7.733333 27.152-12.48 16.944-51.850666-12.464-48.048-25.674667-57.546667-80.426666-57.824-39.12-0.202667-45.541333 1.824-58.666667 18.506666-11.893333 15.125333-14.736 28.890667-14.736 71.381334V533.866667l-65.205333-2.042667-65.2-2.048-9.930667-29.845333c-12.512-37.6-54.88-81.664-100.96-105.018667-43.36-21.973333-46.602667-22.090667-60.506667-2.24z"  horiz-adv-x="1024" />

    
    <glyph glyph-name="muclear-magnetism" unicode="&#58917;" d="M318.315675-107.962771c-5.279973 13.994594-20.629226 26.821194-50.933068 42.559778C97.015495 23.11388-9.074619 214.206218 1.869324 412.850516 8.845287 539.308524 56.823704 645.729303 149.335222 739.91548 307.249066 900.682642 534.213218 940.538435 735.998833 842.938943c134.847298-65.226327 229.065474-177.519075 270.627924-322.531653 17.34391-60.517018 18.719903-74.378279 15.893251-159.999167-3.450649-104.319457-18.757236-161.492492-63.797001-238.340092-36.581143-62.405008-127.732668-150.255217-192.852329-185.855032-30.506508-16.677246-53.813053-31.967834-51.80773-33.973156 2.010656-2.01599 0.458664-9.637283-3.450649-16.949246-6.671965-12.463935-18.821235-13.285264-195.924313-13.285264H325.878303z m341.464889 116.852725l2.005323 83.556898H522.89061c-76.388935 0-141.289931 0.799996-144.223249 1.781324-6.047969 2.01599-11.359941-148.644559-5.754637-163.252483 2.906652-7.567961 32.170499-9.103953 144.255249-7.567961l140.607268 1.930657zM312.891704 32.0045v60.442352h-30.901173c-45.759762 0-56.90637 15.589252-53.173056 74.308946 3.557315 55.802376 19.786564 81.572908 59.802355 94.959506 40.39979 13.514596 439.075046 9.215952 466.834902-5.029308 28.86385-14.81059 41.066453-38.506466 45.770428-88.815537 3.711981-39.765126 2.415987-46.890422-10.954609-60.261019-10.719944-10.719944-24.010542-15.157254-45.386431-15.151922H714.665611l1.519992-58.666361c1.119994-43.269108 3.893313-58.063698 10.533279-56.351706 20.255895 5.226639 99.055484 67.503648 129.657991 102.474133 41.599783 47.530419 86.015552 132.585976 99.818147 191.124338 5.887969 24.97587 10.751944 72.89562 10.81061 106.495445 0.437331 256.766663-204.382936 461.576263-461.602929 461.576263-52.746392 0-138.479279-22.063885-198.500299-51.093068C237.601429 754.507404 139.895271 655.254587 104.28479 582.193634c-82.692903-169.663116-52.709059-371.160734 75.732939-508.946682 34.778486-37.311806 117.343389-101.684804 130.420654-101.684804 1.349326 0 2.453321 27.199858 2.453321 60.442352z m-102.362134 277.934552c-22.719882 59.226358-5.09864 169.641783 37.562471 235.305442 50.351738 77.49293 110.570091 121.151369 194.350988 140.905932 57.162369 13.47193 91.770189 13.418597 144.505914-0.229332 65.130327-16.863912 102.612799-37.829136 147.476565-82.49557 50.01574-49.802407 80.159583-110.703423 90.292863-182.452383 12.015937-85.082224-0.479998-126.218009-36.773142-121.07137-15.386587 2.181322-16.426581 5.589304-16.986578 55.658377-0.778663 69.247639-7.258629 101.588804-28.933182 144.356582-35.701147 70.452966-106.388779 120.575372-190.329676 134.953963-86.186218 14.76259-188.217686-27.183858-243.780063-100.228811-33.36516-43.861105-54.895714-119.178046-48.991745-171.359107 2.543987-22.527883 2.591987-46.282426 0.095999-52.789059-5.903969-15.37592-42.639778-15.791918-48.490414-0.554664zM121.175369 365.885428c-10.314613 12.426602-3.957313 36.517143 11.167942 42.325113C146.337904 413.581179 170.668444 400.679913 170.668444 387.890646c0-30.874506-30.778506-44.559768-49.493075-22.005218z m744.006792-5.583971c-10.32528 10.32528-4.079979 37.775803 10.346612 45.493096 12.405269 6.645299 17.599908 5.573304 29.162515-5.989302 11.562606-11.56794 12.629268-16.757246 5.994636-29.157181-7.722626-14.431925-35.178483-20.677226-45.503763-10.346613z m-119.855376-191.844334c1.231994 8.671955-4.277311 22.053218-12.447935 30.218509-14.111927 14.11726-22.138551 14.661257-215.742877 14.661257-170.484445 0-203.48694-1.685325-216.884203-11.071942-15.061255-10.543945-21.285222-37.967802-10.965277-48.287749 2.661319-2.661319 105.860782-3.994646 229.332139-2.959985l224.489498 1.877324z"  horiz-adv-x="1024" />

    
    <glyph glyph-name="lead" unicode="&#58918;" d="M289.029333-65.776c-13.44 14.666667-41.04 46.666667-61.344 71.109333l-36.917333 44.442667h24.634667c13.546667 0 28.106667 4.181333 32.341333 9.290667 4.24 5.104 8.629333 41.104 9.76 80l2.053333 70.709333h120.885334L384 137.450667c1.957333-39.786667 5.92-74.682667 8.810667-77.552 2.890667-2.874667 16.922667-7.125333 31.184-9.450667l25.930666-4.224-59.125333-69.333333c-32.517333-38.133333-63.221333-69.333333-68.229333-69.333334-5.013333 0-20.106667 12-33.541334 26.666667z m350.864 42.389333c-0.064 38.282667-2.933333 74.058667-6.373333 79.498667-3.445333 5.44-17.653333 11.84-31.584 14.218667l-25.322667 4.336 49.984 60.442666c60.282667 72.890667 68.384 79.744 84.24 71.258667 6.592-3.525333 36.778667-35.402667 67.082667-70.832l55.093333-64.426667h-24.522666c-13.493333 0-28-4.176-32.234667-9.285333-4.24-5.109333-8.629333-41.109333-9.76-80l-2.053333-70.714667-62.218667-2.053333-62.224-2.053333-0.106667 69.610666z m-473.973333 349.264c-89.696 31.424-137.477333 99.733333-137.477333 196.549334 0 35.285333 4.490667 53.173333 22.272 88.752 18.490667 37.013333 29.557333 49.274667 65.290666 72.373333 23.664 15.290667 54.8 29.685333 69.194667 31.989333 33.712 5.386667 35.877333 7.104 58.56 46.373334C283.450667 830.645333 355.968 870.517333 441.728 870.773333c48.170667 0.138667 59.984-2.72 106.666667-25.797333 34.282667-16.949333 66.362667-27.189333 92.48-29.52 50.405333-4.501333 87.093333-23.12 127.306666-64.613333 23.626667-24.373333 37.024-32.656 53.045334-32.773334 50.970667-0.373333 125.333333-53.232 154.544-109.856 18.629333-36.117333 24.533333-107.178667 12.48-150.224-13.653333-48.762667-55.328-97.221333-104.288-121.264L842.666667 316.442667l-320-1.717334c-293.232-1.578667-323.072-0.64-356.746667 11.152z m693.029333 57.472c52.421333 26.96 86.826667 80.165333 86.826667 134.256 0 15.802667-8.277333 43.728-19.552 65.962667-26.149333 51.562667-64.853333 78.4-121.36 84.138667-39.610667 4.026667-43.712 6.24-66.213333 35.669333-32.144 42.048-69.728 60.848-123.802667 61.92-36.464 0.730667-48.010667 4.442667-76.714667 24.677333-28.704 20.229333-41.141333 24.229333-82.645333 26.576-26.869333 1.52-59.882667-0.88-73.36-5.328-37.978667-12.533333-82.72-55.392-103.829333-99.450666L259.242667 672l-38.954667-4.213333c-63.482667-6.88-108.213333-38.741333-131.024-93.333334-30.965333-74.138667 2.314667-153.989333 81.402667-195.306666 13.861333-7.237333 88.730667-9.290667 339.84-9.322667 302.997333-0.042667 323.621333 0.757333 348.442666 13.525333z m-320.474666 55.301334l-19.749334 3.221333 1.973334 100.842667L522.666667 643.557333l39.109333 2.288c53.610667 3.130667 91.269333-8.928 100.058667-32.053333 8.554667-22.496 2.88-42.597333-14.688-51.994667-12.362667-6.613333-11.872-8.426667 7.594666-27.893333 11.445333-11.445333 20.816-27.701333 20.816-36.128 0-20.810667-37.424-56.885333-59.008-56.885333-9.594667 0-26.64-1.226667-37.882666-2.736-11.242667-1.498667-29.333333-1.28-40.192 0.490666z m79.866666 40.96c21.205333 25.546667-12.442667 63.989333-45.066666 51.466666-11.562667-4.432-16.624-47.136-6.757334-57.002666 8.613333-8.613333 43.146667-4.928 51.824 5.536z m-4.16 95.36c6.752 7.461333 9.978667 18.304 7.429334 24.949333-5.077333 13.226667-32.938667 22.4-49.152 16.181333-10.688-4.106667-15.045333-40.48-5.941334-49.584 9.269333-9.264 35.904-4.538667 47.664 8.453334z m-264.154666-32.746667l1.973333 101.333333 55.274667-0.362666c63.786667-0.416 80.954667-11.109333 88.053333-54.848 3.6-22.186667 1.173333-28.938667-16.853333-46.965334-14.570667-14.576-31.253333-22.581333-54.208-26.026666l-33.157334-4.970667v-34.746667c0-33.936-0.501333-34.746667-21.525333-34.746666H348.053333z m93.941333 19.024c16.154667 17.856 12.021333 36.608-10.901333 49.472-28.906667 16.229333-41.957333 6.608-41.957334-30.938667 0-30.677333 0.976-32.224 20.234667-32.224 11.125333 0 25.808 6.16 32.624 13.690667z"  horiz-adv-x="1024" />

    
    <glyph glyph-name="robot" unicode="&#58919;" d="M109.882667-30.96c-13.397333 14.453333-17.44 26.602667-17.44 52.426667v33.610666l-36.746667 3.530667C6.165333 63.370667 0 73.386667 0 149.12c0 78.528 8.490667 92.661333 55.690667 92.661333h33.546666l8.714667 54.768c4.789333 30.117333 17.994667 74.597333 29.344 98.848 19.04 40.682667 73.664 105.92 101.264 120.928C238.757333 521.866667 234.133333 535.274667 192 622.224c-34.314667 70.826667-54.613333 104.234667-70.336 115.765333-25.301333 18.554667-28.944 42.954667-9.104 60.906667 29.568 26.757333 77.253333 0.597333 68.826667-37.76-3.488-15.893333 5.594667-40.202667 43.013333-115.093333 26.090667-52.213333 48.250667-95.84 49.242667-96.949334 0.992-1.114667 30.229333 6.4 64.970666 16.698667 113.226667 33.568 261.818667 31.733333 364.890667-4.490667 21.509333-7.557333 40.213333-13.744 41.557333-13.744 1.349333 0 23.498667 44 49.226667 97.776 29.621333 61.909333 46.378667 105.696 45.685333 119.365334-1.653333 32.330667 13.92 48.970667 44.986667 48.090666 14.4-0.405333 32.368-6.346667 39.941333-13.2 26.976-24.416 11.274667-67.605333-25.306666-69.589333-19.077333-1.034667-23.824-8.021333-68.138667-100.314667l-47.637333-99.2 45.328-43.792c54.714667-52.864 84.128-110.773333 96.4-189.802666l8.56-55.114667h33.770666c50.186667 0 56.122667-9.333333 56.122667-88.293333 0-77.050667-6.346667-87.173333-56.906667-90.762667-30.949333-2.202667-32.042667-3.077333-33.904-27.162667-3.184-41.285333-8.176-55.808-24.394666-70.917333-15.146667-14.112-23.562667-14.416-398.474667-14.416H127.322667zM885.333333 160v163.557333l-22.314666 47.093334c-30.186667 63.701333-65.525333 100.725333-124.138667 130.048-76.277333 38.16-139.338667 49.312-254.325333 44.96-74.138667-2.805333-107.269333-7.290667-140.586667-19.029334-102.784-36.213333-168.106667-97.514667-194.309333-182.352-12.736-41.242667-14.549333-66.058667-14.549334-199.306666v-152.208l375.114667 1.84 375.109333 1.84z m-585.802666 22.826667c-66.832 32.922667-67.781333 141.68-1.530667 175.941333 17.706667 9.152 54.026667 11.002667 215.424 10.986667 180-0.026667 195.786667-1.04 216.896-13.909334 65.44-39.904 57.866667-138.042667-13.52-175.189333-15.093333-7.850667-59.210667-9.957333-206.224-9.829333-159.861333 0.138667-190.506667 1.882667-211.045333 12z m418.634666 48.224c22.826667 24.298667 21.850667 56.165333-2.474666 80.490666L696.565333 330.666667H318.773333l-17.162666-19.952c-22.096-25.690667-21.728-48.197333 1.248-75.504L321.264 213.333333h380.256zM81.776 152.890667c0 49.013333-0.298667 49.813333-19.552 52.026666L42.666667 207.168v-108.554667l19.557333 2.245334c19.253333 2.218667 19.552 3.013333 19.552 52.032zM981.333333 153.36v53.808l-19.557333-2.250667c-18.570667-2.133333-19.664-4.352-21.717333-44.122666-2.698667-52.272 0.709333-61.237333 23.274666-61.237334 17.674667 0 18 0.976 18 53.802667z m-440.138666 503.52c-4.458667 5.365333-6.24 14.629333-3.952 20.586667 2.282667 5.952 0.224 24.757333-4.581334 41.786666l-8.730666 30.970667L513.552 714.666667c-16.586667-56.8-34.298667-60.709333-66.714667-14.72-21.194667 30.069333-22.933333 31.018667-38.314666 20.933333-24.090667-15.781333-91.093333-10.709333-94.490667 7.157333-3.381333 17.770667 10.421333 25.498667 45.754667 25.632 19.989333 0.074667 33.157333 4.570667 41.989333 14.330667 19.008 20.997333 36.437333 17.408 56.117333-11.562667l17.52-25.781333 8.010667 31.114667c16.656 64.709333 17.818667 66.672 39.541333 66.672 18.784 0 21.493333-3.434667 33.290667-42.176 15.717333-51.626667 17.114667-53.157333 27.552-30.24 11.610667 25.477333 27.178667 29.290667 50.186667 12.282666 10.805333-7.994667 28.581333-14.581333 39.493333-14.64 26.48-0.144 39.573333-9.349333 36.48-25.632-1.994667-10.490667-9.92-13.84-36.805333-15.562666-20.213333-1.290667-38.693333 1.482667-45.050667 6.762666-8.96 7.434667-13.056 5.994667-24.181333-8.48-7.365333-9.584-13.461333-23.984-13.546667-32-0.309333-28.224-32.165333-42.394667-49.189333-21.882666z"  horiz-adv-x="1024" />

    
    <glyph glyph-name="shouyepaiban" unicode="&#58920;" d="M852-16H172c-33.1 0-60 26.9-60 60V724c0 33.1 26.9 60 60 60h680c33.1 0 60-26.9 60-60v-680c0-33.1-26.9-60-60-60zM356.5 614H267c-15.3 0-27.8-12.4-27.8-27.8v-89.5c0-15.3 12.4-27.8 27.8-27.8h89.5c15.3 0 27.8 12.4 27.8 27.8v89.5c-0.1 15.4-12.5 27.8-27.8 27.8zM556.8 614h-89.5c-15.3 0-27.8-12.4-27.8-27.8v-89.5c0-15.3 12.4-27.8 27.8-27.8h89.5c15.3 0 27.8 12.4 27.8 27.8v89.5c-0.1 15.4-12.5 27.8-27.8 27.8zM757 614h-89.5c-15.3 0-27.8-12.4-27.8-27.8v-89.5c0-15.3 12.4-27.8 27.8-27.8H757c15.3 0 27.8 12.4 27.8 27.8v89.5c0 15.4-12.4 27.8-27.8 27.8zM556.8 422.5h-89.5c-15.3 0-27.8-12.4-27.8-27.8v-89.5c0-15.3 12.4-27.8 27.8-27.8h89.5c15.3 0 27.8 12.4 27.8 27.8v89.5c-0.1 15.4-12.5 27.8-27.8 27.8zM757 422.5h-89.5c-15.3 0-27.8-12.4-27.8-27.8v-89.5c0-15.3 12.4-27.8 27.8-27.8H757c15.3 0 27.8 12.4 27.8 27.8v89.5c0 15.4-12.4 27.8-27.8 27.8z m2.8-117.3c0-1.5-1.2-2.8-2.8-2.8h-89.5c-1.5 0-2.8 1.2-2.8 2.8v89.5c0 1.5 1.2 2.8 2.8 2.8H757c1.5 0 2.8-1.2 2.8-2.8v-89.5zM356.5 231H267c-15.3 0-27.8-12.4-27.8-27.8v-89.5c0-15.3 12.4-27.8 27.8-27.8h89.5c15.3 0 27.8 12.4 27.8 27.8v89.5c-0.1 15.4-12.5 27.8-27.8 27.8zM556.8 231h-89.5c-15.3 0-27.8-12.4-27.8-27.8v-89.5c0-15.3 12.4-27.8 27.8-27.8h89.5c15.3 0 27.8 12.4 27.8 27.8v89.5c-0.1 15.4-12.5 27.8-27.8 27.8z"  horiz-adv-x="1024" />

    
    <glyph glyph-name="shouyezhiban" unicode="&#58921;" d="M852-16H172c-33.1 0-60 26.9-60 60V724c0 33.1 26.9 60 60 60h680c33.1 0 60-26.9 60-60v-680c0-33.1-26.9-60-60-60zM848.2 562.3c0 39.7-32.3 72-72 72H247.8c-39.7 0-72-32.3-72-72v-97.6c0-0.7 0-1.4 0.1-2.1-0.1-0.7-0.1-1.4-0.1-2.1v-344.7c0-43.7 35.6-79.3 79.3-79.3h513.8c43.7 0 79.3 35.6 79.3 79.3V460.5c0 0.7 0 1.4-0.1 2.1 0.1 0.7 0.1 1.4 0.1 2.1v97.6z m-622.4 0c0 12.1 9.9 22 22 22h110V550c0-6.5 5.3-11.8 11.8-11.8h14.5c6.5 0 11.8 5.3 11.8 11.8v34.3h232V550c0-6.5 5.3-11.8 11.8-11.8h14.5c6.5 0 11.8 5.3 11.8 11.8v34.3h110c12.1 0 22-9.9 22-22v-72.6H225.8v72.6z m572.4-446.5c0-16.2-13.2-29.3-29.3-29.3h-10.8v1c0 55.1-32.7 102.3-79 121.3 27.5 15.8 46.1 45.6 46.1 79.6 0 50.6-41.1 91.7-91.7 91.7s-91.7-41.1-91.7-91.7c0-34 18.6-63.7 46.1-79.6-46.2-19-79-66.2-79-121.3v-1H255.1c-16.2 0-29.3 13.2-29.3 29.3V435.5h572.5v-319.7z"  horiz-adv-x="1024" />

    
    <glyph glyph-name="shouyetongji" unicode="&#58922;" d="M852-16H172c-33.1 0-60 26.9-60 60V724c0 33.1 26.9 60 60 60h680c33.1 0 60-26.9 60-60v-680c0-33.1-26.9-60-60-60zM848.3 110h-61.2V546.1c0 15.6-12.6 28.2-28.2 28.2h-56.3c-15.6 0-28.2-12.6-28.2-28.2V110h-61.7V413.2c0 15.6-12.6 28.2-28.2 28.2h-56.3c-15.6 0-28.2-12.6-28.2-28.2V110h-54.4V299.3c0 15.6-12.6 28.2-28.2 28.2h-56.3c-15.6 0-28.2-12.6-28.2-28.2V110h-80V587.8c0 11.8-9.6 21.4-21.4 21.4-11.8 0-21.4-9.6-21.4-21.4v-491.6c0-1.3 0.1-2.6 0.4-3.8-0.2-1.2-0.4-2.5-0.4-3.8 0-11.8 9.6-21.4 21.4-21.4h616.7c11.8 0 21.4 9.6 21.4 21.4 0.1 11.8-9.5 21.4-21.3 21.4z"  horiz-adv-x="1024" />

    
    <glyph glyph-name="tongjixiao" unicode="&#58925;" d="M225.2 428.6c6.2-9.8 19.4-12.7 29.2-6.5l175.2 111.6 153.9-88.9c9.2-5.3 20.7-2.9 27.1 5.2 0.9 0.6 1.8 1.4 2.6 2.2L759 597.9v-75.6c0-11.7 9.4-21.1 21.1-21.1 11.7 0 21.1 9.4 21.1 21.1V646.6c0.2 1.4 0.4 2.7 0.4 4.1 0 11.7-9.4 21.1-21.1 21.1H652.1c-11.7 0-21.1-9.4-21.1-21.1s9.4-21.1 21.1-21.1h78.6l-140-140-147.1 85c-2.6 1.5-5.5 2.4-8.4 2.7-6.1 2.4-13.1 1.9-19-1.8L231.7 457.8c-9.9-6.3-12.8-19.3-6.5-29.2z m564.9-27.8h-11.8c-8.4 0-15.2-6.8-15.2-15.2v-247.1H617.8V309.9c0 8.4-6.8 15.2-15.2 15.2h-11.8c-8.4 0-15.2-6.8-15.2-15.2v-171.4H428.5V362.9c0 8.4-6.8 15.2-15.2 15.2h-11.8c-8.4 0-15.2-6.8-15.2-15.2v-224.4H261V309.9c0 8.4-6.8 15.2-15.2 15.2H234c-8.4 0-15.2-6.8-15.2-15.2v-192.6c0-11.7 9.4-21.1 21.1-21.1h544.2c11.7 0 21.1 9.4 21.1 21.1V385.6c0.1 8.4-6.7 15.2-15.1 15.2z m0 0"  horiz-adv-x="1024" />

    


  </font>
</defs>
</svg>
